<?xml version="1.0" encoding="utf-8"?>
<!-- Generator: Adobe Illustrator 17.1.0, SVG Export Plug-In . SVG Version: 6.00 Build 0)  -->
<!DOCTYPE svg PUBLIC "-//W3C//DTD SVG 1.1//EN" "http://www.w3.org/Graphics/SVG/1.1/DTD/svg11.dtd">
<svg version="1.1" id="Layer_1" xmlns="http://www.w3.org/2000/svg" xmlns:xlink="http://www.w3.org/1999/xlink" x="0px" y="0px"
	 viewBox="0 0 64 64" enable-background="new 0 0 64 64" xml:space="preserve">
<g>
	<path d="M51.2,25c-2.3,0-4.4,0.6-6.3,1.7L39.5,19l0.8-0.9c0.1,0,0.2,0,0.3,0c1.3,0,2.3-1,2.3-2.3c0-1.3-1-2.3-2.3-2.3
		c-1.3,0-2.3,1-2.3,2.3c0,0.4,0.1,0.8,0.3,1.1l-1.1,1.4c-0.3,0.3-0.3,1,0,1.4l0.7,1.2h-15l-0.9-2.7c0.9-0.3,1.8-0.6,3.1-0.7
		c0.6,0,1-0.5,0.9-1.1c0-0.6-0.5-1-1-1c-1.9,0.1-3.2,0.5-4.3,0.8c-0.9,0.3-1.6,0.5-2.5,0.5c-0.6,0-1,0.4-1,1s0.4,1,1,1
		c0.7,0,1.3-0.1,1.9-0.3l1,2.9l-2.8,4.9c-1.7-0.9-3.7-1.4-5.7-1.4c-7,0-12.7,5.7-12.7,12.7c0,7,5.7,12.7,12.7,12.7
		c5.5,0,10.1-3.5,11.9-8.4l3.3,0.1c0,0,0.1-0.2,0.1-0.2c0,0,0,0,0,0c2.2,0,4.1-1,4.5-3h1.8c0.6,0,1-0.4,1-1s-0.4-1-1-1h-1.8
		c-0.2-1-0.6-1.7-1.1-2.2L40,23.3l3.3,4.6c-2.9,2.3-4.7,5.9-4.7,9.9c0,7,5.7,12.7,12.7,12.7c7,0,12.7-5.7,12.7-12.7
		C63.9,30.7,58.2,25,51.2,25z M37.9,23l-8.1,10.7c-0.5-0.2-1.1-0.4-1.7-0.4c-0.1,0-0.3,0-0.4,0c-0.1,0-0.2-0.1-0.3-0.1l0,0.2
		L23.8,23H37.9z M28.1,35.1c0.1,0,0.3,0,0.4,0l-0.3,0.4L28.1,35.1C28,35.1,28.1,35.1,28.1,35.1z M22.2,24l3.1,9.3l-0.6,0.1
		c-0.9-2.4-2.5-4.5-4.5-6L22.2,24z M23.5,37.7c0,0.8-0.1,1.5-0.2,2.2l-10.5-0.9c-0.7,0-1.3-0.6-1.3-1.3c0-0.7,0.6-1.3,1.3-1.3
		l-0.4,0.7c-0.3,0.5-0.1,1.1,0.4,1.4c0.2,0.1,0.3,0.1,0.5,0.1c0.3,0,0.7-0.2,0.9-0.5l1.1-1.9l8.1-0.7C23.4,36.3,23.5,37,23.5,37.7z
		 M16.4,34.1l2.8-4.9c1.5,1.1,2.7,2.6,3.4,4.4L16.4,34.1z M12.8,48.4c-5.9,0-10.7-4.8-10.7-10.7C2.1,31.8,6.9,27,12.8,27
		c1.7,0,3.3,0.4,4.7,1.1l-3.6,6.2l-1.2,0.1c0,0,0,0,0,0c-1.8,0.1-3.2,1.5-3.2,3.3c0,1.8,1.5,3.3,3.2,3.3c0,0,0,0,0,0l9.9,0.9
		C21,45.7,17.2,48.4,12.8,48.4z M30.7,37.7c0,1.4-1.2,2.6-2.6,2.6l-2.9-0.2c0.1-0.8,0.2-1.6,0.2-2.4c0-0.8-0.1-1.6-0.2-2.4l0.7-0.1
		l0.9,2.7c0.1,0.4,0.4,0.6,0.8,0.7c0.1,0,0.1,0,0.2,0c0.3,0,0.6-0.1,0.8-0.4l1.6-2.1C30.5,36.7,30.7,37.2,30.7,37.7z M51.2,48.4
		c-5.9,0-10.7-4.8-10.7-10.7c0-3.3,1.5-6.3,3.9-8.3l4.9,6.9c-0.3,0.4-0.4,0.8-0.4,1.3c0,1.3,1,2.3,2.3,2.3c1.3,0,2.3-1,2.3-2.3
		c0-1.3-1-2.3-2.3-2.3c0,0-0.1,0-0.1,0l-5-7.1c1.5-0.8,3.3-1.3,5.1-1.3c5.9,0,10.7,4.8,10.7,10.7C61.9,43.6,57.1,48.4,51.2,48.4z"/>
</g>
</svg>
