<?xml version="1.0" encoding="utf-8"?>
<!-- Generator: Adobe Illustrator 17.1.0, SVG Export Plug-In . SVG Version: 6.00 Build 0)  -->
<!DOCTYPE svg PUBLIC "-//W3C//DTD SVG 1.1//EN" "http://www.w3.org/Graphics/SVG/1.1/DTD/svg11.dtd">
<svg version="1.1" id="Layer_1" xmlns="http://www.w3.org/2000/svg" xmlns:xlink="http://www.w3.org/1999/xlink" x="0px" y="0px"
	 viewBox="0 0 64 64" enable-background="new 0 0 64 64" xml:space="preserve">
<path d="M49,8h-6v7h-7v6h7v7h6v-7h7v-6h-7V8z M54,17v2h-7v7h-2v-7h-7v-2h7v-7h2v7H54z"/>
<path d="M36.3,37.6c-0.5-0.6-1.1-1.3-1.8-2c-0.2-0.2-0.4-0.3-0.6-0.5c-0.4-0.4-0.8-0.7-1.2-1c-0.5-0.5-1.1-0.9-1.6-1.3
	c-0.4-0.4-0.8-0.8-1-1.1c-0.3-0.4-0.3-0.6-0.3-0.8c0-0.5,0.2-0.9,0.4-1.3l0.1-0.1c0.4-0.6,0.8-1,1.3-1.4l2-1.9
	c0.6-0.6,1.1-1.4,1.8-2.9c0.4-1.2,0.6-2.5,0.6-4c0-1.6-0.4-3.4-1.2-5.1c-0.3-0.7-0.8-1.1-1.3-2.1h1.4l7.3-4H27.6h0h-1.3
	c-2.2,0-3.9,0.2-5.5,0.5c-2.7,0.6-5,2.1-6.9,4.3c-2,2.2-3,4.7-3,7.5c0,2.9,1.1,5.5,3.3,7.6c2.2,2,4.8,3,7.7,3c0.2,0,0.3,0,0.5,0
	c0,0,0,0,0,0c0,0-0.2,0.1-0.2,0.1L22,31.2v0.9c0,1,0.5,2,1.2,3.2c-0.9,0.1-1.6,0.2-2.4,0.3c-1.4,0.2-2.9,0.6-4.4,1
	c-1.7,0.5-3.1,1.3-4.3,2.2c-1.3,1-2.3,2.1-2.9,3.4c-0.8,1.6-1.2,3-1.2,4.2c0,1.4,0.3,2.6,1,3.9c0.7,1.1,1.4,1.9,2.4,2.7
	c1.1,0.8,2.2,1.4,3.3,1.8c1.3,0.4,2.4,0.7,3.5,0.9c1.1,0.2,2.3,0.3,3.5,0.3c5.3,0,9.3-1.3,12.3-3.8c2.8-2.5,4.2-5.4,4.2-8.6
	c0-1.1-0.2-2.2-0.5-3.2C37.3,39.4,36.9,38.5,36.3,37.6z M22,28.9c-2.5,0-4.6-0.8-6.4-2.4c-1.8-1.7-2.7-3.8-2.7-6.1
	c0-2.3,0.8-4.4,2.5-6.2c0.8-1,1.8-1.8,2.8-2.4c-0.2,0.2-0.3,0.4-0.5,0.6c-1.1,1.4-1.7,3.2-1.7,5.2c0,1.1,0.1,2,0.4,2.9
	c0.2,1.2,0.6,2.2,1,3.1c0.5,1.2,1.1,2.1,1.7,2.8c0.7,0.9,1.4,1.6,2.4,2.1c0.4,0.2,0.7,0.4,1.1,0.5C22.5,28.9,22.3,28.9,22,28.9z
	 M22.6,26.6c-0.8-0.4-1.3-0.9-1.8-1.6c-0.5-0.6-1-1.5-1.5-2.5c-0.4-0.8-0.7-1.7-0.9-2.7c-0.2-0.8-0.3-1.6-0.3-2.4
	c0-1.5,0.4-2.9,1.2-3.9c0.8-1.1,1.8-1.5,3.2-1.5c1,0,1.9,0.3,2.7,0.9c0.8,0.7,1.5,1.5,2.1,2.6c0.5,1,0.9,2.1,1.3,3.4
	c0.2,1,0.4,2,0.4,3v0.2c0,1.7-0.4,3-1.1,3.9c-0.5,0.8-1.6,1.2-3.1,1.2C24,27.2,23.3,27,22.6,26.6z M19.9,39.8
	c0.7-0.3,1.6-0.5,2.3-0.6l0.4-0.1c1-0.1,1.9-0.2,2.9-0.2c0.3,0,0.6,0,0.8,0.1c0.1,0,0.1,0,0.2,0c0.2,0.1,0.4,0.2,0.7,0.4
	c0.1,0.1,0.3,0.2,0.4,0.3c0.1,0.1,0.2,0.1,0.2,0.1l0.1,0.2l0.3,0.1c0.1,0,0.3,0.1,0.7,0.5c0.1,0.1,0.3,0.2,0.4,0.3
	c0.2,0.1,0.3,0.3,0.5,0.4c0,0,0.1,0.1,0.1,0.1c0.2,0.1,0.3,0.3,0.4,0.4l0.7,0.7c0.1,0.3,0.3,0.5,0.5,0.7l0.1,0.2
	c0.1,0.2,0.3,0.5,0.4,0.7c0,0.1,0,0.2,0.1,0.3c0,0.2-0.1,0.4,0,0.6c0.1,0.3,0,0.6,0,0.8V46c0,0.9-0.1,1.7-0.5,2.4
	c-0.5,0.8-1,1.3-1.7,1.7c-0.9,0.5-1.6,0.8-2.5,1c-0.8,0.2-1.7,0.3-2.8,0.3c-1,0-2.1-0.1-3.4-0.5c-1.1-0.2-2.1-0.7-3-1.2
	c-0.9-0.4-1.6-1-2.2-1.9c-0.6-0.9-0.8-1.8-0.8-2.8c0-0.9,0.2-1.7,0.6-2.5c0.4-0.7,0.9-1.2,1.7-1.7c0.6-0.5,1.4-0.8,2.4-1.1
	L19.9,39.8z M32.6,50.7c-2.6,2.2-6.2,3.3-11,3.3c-1,0-2.1-0.1-3.1-0.3c-1-0.2-2-0.4-3.2-0.8c-1.3-0.5-2.1-1-2.8-1.5
	c-0.8-0.6-1.4-1.3-1.9-2.1c-0.5-1-0.8-1.8-0.8-2.9c0-0.9,0.3-2,1-3.3c0.5-1,1.2-1.8,2.3-2.7c1.1-0.8,2.3-1.4,3.7-1.9
	c0.4-0.1,0.7-0.2,1.1-0.3c-0.7,0.3-1.3,0.6-1.8,1c-1,0.6-1.7,1.4-2.3,2.4c-0.6,1.1-0.9,2.2-0.9,3.5c0,1.3,0.4,2.6,1.1,3.8
	c0.8,1.2,1.8,2.1,3,2.7c1,0.5,2.2,1.1,3.5,1.4c1.4,0.4,2.6,0.5,3.8,0.5c1.3,0,2.4-0.1,3.3-0.4c1-0.2,1.9-0.6,3-1.2
	c1-0.5,1.8-1.3,2.5-2.4c0.3-0.6,0.4-1.2,0.6-1.9l0.1,0.1V46c0-0.5,0-1-0.1-1.4c0-0.1,0-0.3,0-0.4c0-0.2,0-0.4-0.1-0.7
	c-0.1-0.4-0.3-0.8-0.6-1.3L33,42c-0.1-0.1-0.2-0.3-0.2-0.3l-0.1-0.2l-0.9-0.9c-0.3-0.3-0.5-0.5-0.7-0.7c-0.1,0-0.1-0.1-0.1-0.1
	l-0.2-0.2c-0.1,0-0.2-0.1-0.3-0.2c-0.1-0.1-0.3-0.2-0.5-0.4c-0.3-0.2-0.6-0.4-0.8-0.6c-0.2-0.2-0.4-0.3-0.6-0.5
	c-0.1-0.1-0.2-0.1-0.3-0.2l-0.1-0.1c-0.5-0.3-0.7-0.4-0.7-0.4c0,0,0,0,0,0L27.2,37h-0.2l-1.2-1.4c-1-1.4-1.7-2.6-1.7-3.5v-0.5
	c0-0.1,0.2-0.2,0.3-0.2c0,0,0.1-0.1,0.1-0.1l0.2-0.4c0-0.1,0.1-0.2,0.1-0.3c0.1-0.2,0.1-0.3,0.2-0.4c0,0,0-0.1,0-0.1l0.5-1
	c1.9-0.1,3.3-0.8,4.2-2c0.8-1.1,1.3-2.7,1.3-4.6l0-0.4c0-1.3-0.1-2.5-0.4-3.8c-0.4-1.2-0.8-2.5-1.4-3.7c-0.6-1.3-1.5-2.4-2.6-3.2
	c-0.8-0.6-1.6-1-2.5-1.2c0.6,0,1.1-0.1,1.8-0.1h8.9h-0.2h-6.6l2.6,1.9c1.2,0.8,2.1,1.9,2.7,3.1c0.7,1.5,1,2.9,1,4.3
	c0,1.3-0.2,2.4-0.5,3.3c-0.5,1.1-0.9,1.8-1.3,2.2l-1.8,1.8c-0.6,0.5-1.2,1.1-1.7,1.8c-0.6,0.7-0.9,1.6-0.9,2.5
	c0,0.8,0.3,1.3,0.6,1.9c0.4,0.6,0.8,1,1.3,1.5l0.1,0.1c0.5,0.4,1,0.8,1.6,1.3l0.1,0.1c0.3,0.2,0.7,0.5,1.1,0.9
	c0.2,0.2,0.4,0.4,0.5,0.5c0.6,0.6,1.1,1.2,1.5,1.7c0.4,0.6,0.8,1.3,1,2.2c0.3,0.9,0.4,1.7,0.4,2.6C36.1,46.2,35,48.6,32.6,50.7z"/>
</svg>
