<?xml version="1.0" encoding="utf-8"?>
<!-- Generator: Adobe Illustrator 17.1.0, SVG Export Plug-In . SVG Version: 6.00 Build 0)  -->
<!DOCTYPE svg PUBLIC "-//W3C//DTD SVG 1.1//EN" "http://www.w3.org/Graphics/SVG/1.1/DTD/svg11.dtd">
<svg version="1.1" id="Layer_1" xmlns="http://www.w3.org/2000/svg" xmlns:xlink="http://www.w3.org/1999/xlink" x="0px" y="0px"
	 viewBox="0 0 64 64" enable-background="new 0 0 64 64" xml:space="preserve">
<g>
	<path d="M36.6,56.5H24.9V33H20V22.9h4.9V19c0-3.8,0.9-6.6,2.7-8.6c1.9-2,4.8-2.9,8.8-2.9h7.5v10.1h-5c-0.5,0-1.2,0-1.4,0.1
		l-0.3,0.1c-0.2,0-0.3,0.1-0.3,0.1c-0.1,0.3-0.2,0.5-0.3,0.7c0,0.1,0,0.2,0,0.4c0,0.2-0.1,0.5-0.1,0.8l0,3.1h7.5L43,33h-6.4V56.5z
		 M26.9,54.5h7.7V31h6.6l0.7-6.1h-7.3l0-5.1c0-0.4,0-0.7,0.1-1c0-0.1,0-0.3,0-0.4v-0.2l0.1-0.2c0.1-0.3,0.2-0.7,0.5-1.1l0.1-0.1
		c0.3-0.5,0.8-0.8,1.5-1c0.6-0.2,1.3-0.2,2.1-0.2h3V9.5h-5.5c-3.5,0-5.9,0.7-7.4,2.3c-1.4,1.6-2.1,4-2.1,7.2v5.9H22V31h4.9V54.5z"/>
</g>
</svg>
