<?xml version="1.0" encoding="utf-8"?>
<!-- Generator: Adobe Illustrator 17.1.0, SVG Export Plug-In . SVG Version: 6.00 Build 0)  -->
<!DOCTYPE svg PUBLIC "-//W3C//DTD SVG 1.1//EN" "http://www.w3.org/Graphics/SVG/1.1/DTD/svg11.dtd">
<svg version="1.1" id="Layer_1" xmlns="http://www.w3.org/2000/svg" xmlns:xlink="http://www.w3.org/1999/xlink" x="0px" y="0px"
	 viewBox="0 0 64 64" enable-background="new 0 0 64 64" xml:space="preserve">
<path d="M51.2,34.8C49.8,32,47,30,43.8,30h-4.8c3.6-2,5.9-6.1,5.9-10.6c0-7.1-5.8-12.8-12.9-12.8s-12.9,5.6-12.9,12.7
	c0,4.5,2.4,8.7,5.9,10.7h-4.8c-4.5,0-8.2,4-8.2,8.5V57h40V38.5c0-0.5-0.1-1-0.1-1.5l7.2-7.2l-1.4-1.5L51.2,34.8z M21.1,19.4
	c0-6,4.9-10.8,10.9-10.8s10.9,4.7,10.9,10.7C42.9,25,38.5,30,33,30h-2C25.5,30,21.1,25,21.1,19.4z M50,55H14V38.5
	c0-3.4,2.8-6.5,6.2-6.5H31c0.3,0,0.7,0,1,0s0.7,0,1,0h10.8c2.7,0,5,1.9,5.9,4.3L39,47l-7.3-7.3l-1.4,1.4l8.7,8.7l11-11V55z"/>
</svg>
