<?xml version="1.0" encoding="utf-8"?>
<!-- Generator: Adobe Illustrator 17.1.0, SVG Export Plug-In . SVG Version: 6.00 Build 0)  -->
<!DOCTYPE svg PUBLIC "-//W3C//DTD SVG 1.1//EN" "http://www.w3.org/Graphics/SVG/1.1/DTD/svg11.dtd">
<svg version="1.1" id="Layer_1" xmlns="http://www.w3.org/2000/svg" xmlns:xlink="http://www.w3.org/1999/xlink" x="0px" y="0px"
	 viewBox="0 0 64 64" enable-background="new 0 0 64 64" xml:space="preserve">
<path d="M56.2,15.9c-0.6,0.2-1.2,0.5-1.8,0.6c0.8-1,1.4-2.2,1.8-3.5c0.1-0.4,0-0.8-0.3-1.1c-0.3-0.3-0.8-0.3-1.1-0.1
	c-1.8,1-3.6,1.7-5.6,2.2c-2.1-2-4.7-3.1-7.7-3.1c-3.1,0-5.8,1.1-7.9,3.2c-2.2,2.2-3.2,4.8-3.2,7.8c0,0.4,0,0.9,0.1,1.3
	c-3.5-0.3-6.8-1.3-10-3c-3.4-1.8-6.4-4.2-8.9-7.2c-0.2-0.3-0.5-0.4-0.9-0.4c-0.3,0-0.6,0.2-0.8,0.5C9,15,8.5,16.9,8.5,19
	c0,2,0.4,3.8,1.3,5.3c0.3,0.5,0.5,0.9,0.8,1.3c-0.3-0.1-0.5-0.2-0.8-0.4c-0.3-0.2-0.9-0.2-1.2,0C8.4,25.4,8,25.7,8,26.1v0.1
	c0,2.7,1,5,2.7,7.1c0.7,0.8,1.5,1.4,2.3,2l-0.1,0c-0.3,0-0.7,0.1-0.9,0.3s-0.3,0.6-0.2,0.9c0.7,2.3,2,4.1,4,5.5
	c1.2,0.9,2.4,1.5,3.8,1.8c-3,1.8-6.3,2.7-9.8,2.7c-0.8,0-1.5-0.1-2.3-0.2c-0.5-0.1-0.9,0.2-1.1,0.6c-0.2,0.4,0,0.9,0.4,1.2
	C11.8,51.4,17,53,22.9,53c3.7,0,7.2-0.6,10.4-1.8c3.1-1.1,5.8-2.6,8.4-4.7c2.5-2.2,4.4-4.5,5.8-6.8c1.7-2.5,3.2-5.2,3.9-8
	c0.8-2.5,1.5-5.3,1.5-8.4v-0.8c1-1.3,3.1-3,4.6-5.1c0.3-0.4,0.1-1-0.3-1.3C57.1,15.8,56.5,15.7,56.2,15.9z M51.2,21.1
	c-0.3,0.2-0.2,0.5-0.2,0.8v1.3c0,2.9-0.6,5.4-1.4,7.8c-0.8,2.7-2,5.2-3.6,7.5c-1.4,2.2-3.2,4.3-5.5,6.4c-2.4,1.9-4.9,3.3-7.8,4.3
	c-2.9,1.1-6.2,1.7-9.7,1.7c-4.1,0-7.9-0.8-11.4-2.4c4.1-0.3,8-1.8,11.4-4.5c0.3-0.3,0.5-0.7,0.3-1.1c-0.1-0.4-0.5-0.7-0.9-0.7
	c-2,0-3.7-0.6-5.3-1.8c-1.1-0.9-2-1.9-2.6-3c1.3,0.1,2.4-0.1,3.4-0.5c0.4-0.2,0.7-0.6,0.6-1c0-0.4-0.4-0.8-0.8-0.9
	c-2-0.4-3.8-1.4-5.2-3c-1.1-1.3-1.7-2.7-2-4.3c1.1,0.4,2.3,0.6,3.5,0.6c0.4,0,0.8-0.3,1-0.7c0.1-0.4-0.1-0.9-0.4-1.1
	c-1.2-0.8-2.2-1.8-2.9-3.1c-0.7-1.3-1.1-2.7-1.1-4.3c0-1.2,0.2-2.3,0.6-3.3c2.4,2.7,5.3,4.9,8.5,6.5c3.8,2,7.9,3.1,12.1,3.3
	c0.3,0,0.6-0.1,0.8-0.4c0.2-0.2,0.3-0.6,0.2-0.9c-0.2-0.8-0.3-1.5-0.3-2.2c0-2.5,0.9-4.6,2.7-6.4c1.8-1.8,3.9-2.7,6.5-2.7
	c2.5,0,4.8,1,6.6,2.9c0.2,0.2,0.6,0.4,0.9,0.3c1.4-0.3,2.8-0.7,4.1-1.2c-0.7,1-1.6,1.8-2.8,2.5c-0.4,0.2-0.6,0.7-0.4,1.2
	c0.2,0.4,0.6,0.7,1.1,0.7c0.9-0.1,1.9-0.3,2.8-0.5C52.9,19.7,52.1,20.5,51.2,21.1z"/>
</svg>
