<?xml version="1.0" encoding="utf-8"?>
<!-- Generator: Adobe Illustrator 17.1.0, SVG Export Plug-In . SVG Version: 6.00 Build 0)  -->
<!DOCTYPE svg PUBLIC "-//W3C//DTD SVG 1.1//EN" "http://www.w3.org/Graphics/SVG/1.1/DTD/svg11.dtd">
<svg version="1.1" id="Layer_1" xmlns="http://www.w3.org/2000/svg" xmlns:xlink="http://www.w3.org/1999/xlink" x="0px" y="0px"
	 viewBox="0 0 64 64" enable-background="new 0 0 64 64" xml:space="preserve">
<path d="M38.5,28.1c-3.3,0-6,2.7-6,6c0,3.3,2.7,6,6,6c3.3,0,6-2.7,6-6C44.5,30.8,41.8,28.1,38.5,28.1z M38.5,38.2c-2.2,0-4-1.8-4-4
	c0-2.2,1.8-4,4-4s4,1.8,4,4C42.5,36.4,40.7,38.2,38.5,38.2z"/>
<path d="M38.5,23.1c-6.1,0-11.1,5-11.1,11.1c0,6.1,5,11.1,11.1,11.1c6.1,0,11.1-5,11.1-11.1C49.5,28.1,44.6,23.1,38.5,23.1z
	 M38.5,43.2c-5,0-9.1-4.1-9.1-9.1c0-5,4.1-9.1,9.1-9.1c5,0,9.1,4.1,9.1,9.1C47.5,39.2,43.5,43.2,38.5,43.2z"/>
<path d="M48.4,19h-1.3c-0.4-1-0.7-1.5-0.9-1.9c0,0,0-0.1,0-0.1c-0.6-1.3-1.8-2-3.4-2h-8.7c-2,0-2.9,1.1-3.3,2c0,0,0,0,0,0.1
	c-0.2,0.3-0.5,1-0.9,2H27v0c0-0.8-0.5-2-1.3-2h-5.8c-0.8,0-1.5,0.9-1.5,1.8l-2.7,0.1c-1.5,0-2.9,0.7-4,1.7c-1.1,1.1-1.6,2.6-1.6,4.1
	v18.3c0,3.2,2.4,5.9,5.6,5.9h32.8c3.2,0,5.6-2.7,5.6-5.9V24.8C54,21.6,51.6,19,48.4,19z M15.6,47c-2.1,0-3.6-1.8-3.6-3.9V24.8
	c0-1,0.3-2,1-2.7c0.7-0.7,1.6-1.1,2.6-1.1h3.2c2.1,4,3.2,8.2,3.2,13.1c0,4.8-1.1,8.9-3.1,12.9H15.6z M52,43.1c0,2.1-1.5,3.9-3.6,3.9
	H21.2c1.8-4,2.6-8.2,2.6-12.9c0-5.4-0.8-10.4-3.8-14.4V19h5v1c0,0.6,0.7,1,1.2,1h4.2c0.4,0,0.7-0.2,0.9-0.6c0.4-0.8,0.9-2,1.1-2.4
	c0,0,0-0.1,0-0.1c0.3-0.7,1-0.9,1.6-0.9h8.6c0.6,0,1.3,0.2,1.7,0.9c0,0,0,0.1,0,0.1c0.1,0.2,0.4,0.9,1.1,2.4
	c0.2,0.4,0.5,0.6,0.9,0.6h1.9c2.1,0,3.6,1.7,3.6,3.8V43.1z"/>
<path d="M35.4,21h6.2c0.6,0,1-0.4,1-1s-0.4-1-1-1h-6.2c-0.6,0-1,0.4-1,1S34.9,21,35.4,21z"/>
</svg>
