<?xml version="1.0" encoding="utf-8"?>
<!-- Generator: Adobe Illustrator 17.1.0, SVG Export Plug-In . SVG Version: 6.00 Build 0)  -->
<!DOCTYPE svg PUBLIC "-//W3C//DTD SVG 1.1//EN" "http://www.w3.org/Graphics/SVG/1.1/DTD/svg11.dtd">
<svg version="1.1" id="Layer_1" xmlns="http://www.w3.org/2000/svg" xmlns:xlink="http://www.w3.org/1999/xlink" x="0px" y="0px"
	 viewBox="0 0 64 64" enable-background="new 0 0 64 64" xml:space="preserve">
<g>
	<path d="M55.1,10.8c-1.2-1.6-7.6-0.9-9.5-0.7c-22.8,2.7-30.2,15.5-31.9,19.3C11.8,33.6,12,40.3,13,43.3c-0.3,0.4-0.7,0.7-1,1.1
		c-1.9,2-4.1,4.4-3.8,6.6c0.1,1,0.6,1.8,1.5,2.5c0.8,0.5,1.5,0.8,2.3,0.8c2.8,0,5.6-3.2,7.5-5.6c1.8,0.7,6.2,1.9,13.2-0.1
		c13.5-3.9,19.4-18,21.3-23.8C55.7,19.3,56.7,12.8,55.1,10.8z M52,24.2c-1.8,5.6-7.4,18.9-20,22.5c-7.9,2.3-12,0.2-12.4-0.1
		c-0.4-0.2-1-0.1-1.3,0.2c-2.8,3.4-5.6,6.4-7.6,5c-0.6-0.4-0.7-0.8-0.7-1c-0.1-1.4,1.9-3.5,3.3-5.1c0.5-0.6,1.1-1.1,1.5-1.7
		c0.2-0.3,0.3-0.7,0.1-1.1c-1-2.1-1.2-9,0.5-12.8c4.1-9.2,13.3-13.7,20.4-16c5.9-1.9,11.4-2.5,14.7-2.5c0.6,0,1.1,0,1.5,0
		c-3.4,3.3-13.2,12.5-20.1,18.4C22.1,38.9,20.2,40.9,20.1,41c-0.4,0.4-0.3,1,0.1,1.4c0.4,0.4,1,0.3,1.4-0.1c0,0,2-2.1,11.8-10.6
		c7.1-6.2,17.4-15.9,20.5-18.8C54.1,14.8,53.7,18.9,52,24.2z"/>
</g>
</svg>
