<?xml version="1.0" encoding="utf-8"?>
<!-- Generator: Adobe Illustrator 17.1.0, SVG Export Plug-In . SVG Version: 6.00 Build 0)  -->
<!DOCTYPE svg PUBLIC "-//W3C//DTD SVG 1.1//EN" "http://www.w3.org/Graphics/SVG/1.1/DTD/svg11.dtd">
<svg version="1.1" id="Layer_1" xmlns="http://www.w3.org/2000/svg" xmlns:xlink="http://www.w3.org/1999/xlink" x="0px" y="0px"
	 viewBox="0 0 64 64" enable-background="new 0 0 64 64" xml:space="preserve">
<path fill="#231F20" d="M46.1,56.4H17.9c-0.6,0-1-0.4-1-1V28.2c0-0.1-0.1-0.2-0.1-0.3v-0.7c0-0.2,0.1-0.5,0.2-0.6l0-0.2
	c0-0.1,0-0.1,0-0.2c0-0.4,0.2-0.8,0.6-1V25c0-0.2,0.1-0.4,0.2-0.6l0-0.2c0-0.1,0-0.2,0-0.2c0-0.4,0.2-0.7,0.4-0.9c0,0,0,0,0,0v-0.5
	c0-0.2,0.1-0.4,0.2-0.6l0-0.1c0,0,0-0.1,0-0.1c0-0.5,0.3-0.9,0.7-1l0.6-4.2c0-0.1-0.1-0.3-0.1-0.4c0-0.2,0.1-0.5,0.2-0.7
	c0-0.1,0-0.1,0-0.2c0-0.2,0-0.4,0.1-0.5c0-0.5,0.5-0.9,1-0.9h0.2c0.5,0,1,0.4,1,1c0.1,0.2,0.1,0.3,0.1,0.5c0,0.1,0,0.1,0,0.2
	c0.1,0.2,0.2,0.4,0.2,0.7c0,0.1,0,0.3-0.1,0.4l0.6,4.2c0.4,0.2,0.7,0.5,0.7,1c0,0.1,0,0.1,0,0.2l0,0.1c0.1,0.2,0.2,0.3,0.2,0.5V23
	c0,0,0,0,0,0c0.3,0.2,0.4,0.5,0.4,0.9c0,0.1,0,0.2,0,0.2l0,0.2c0.1,0.2,0.2,0.4,0.2,0.6v0.1c0.3,0.2,0.6,0.5,0.6,1
	c0,0.1,0,0.1,0,0.2l0,0.2c0.1,0.2,0.2,0.4,0.2,0.6v0.7c0,0.1,0,0.3-0.1,0.4v4.7h0.4c0.2-0.2,0.4-0.3,0.7-0.3H27V27
	c-0.1-0.1-0.1-0.2-0.1-0.4v-0.9c0-0.3,0.1-0.5,0.3-0.7l0.1-0.4c0-0.1,0-0.2,0-0.3c0-0.5,0.3-0.9,0.7-1v-0.3c0-0.2,0.1-0.5,0.2-0.6
	l0.1-0.4c0-0.1,0-0.2,0-0.3c0-0.4,0.2-0.8,0.6-1c0-0.1,0-0.1,0-0.2V20c0-0.2,0.1-0.5,0.2-0.6l0-0.2c0-0.1,0-0.1,0-0.2
	c0-0.5,0.4-0.9,0.8-1.1l0.8-5.4c-0.1-0.2-0.1-0.3-0.1-0.5c0-0.3,0.1-0.5,0.2-0.8l0-0.2c-0.1-0.1-0.1-0.3-0.1-0.4v-0.6
	c-0.1-0.1-0.2-0.2-0.2-0.3c0-0.1-0.1-0.2-0.1-0.3c-0.1-0.1-0.1-0.2-0.2-0.3c-0.1-0.3-0.1-0.6,0.1-0.9l0.1-0.2
	c0.2-0.3,0.5-0.5,0.8-0.5c0.3,0,0.7,0.2,0.9,0.4l0,0.1c0.2,0,0.4,0.1,0.5,0.2c0.2,0.1,0.3,0.3,0.4,0.5c0,0,0,0.1,0,0.1
	c0.1,0.1,0.1,0.2,0.2,0.2c0,0,0.1,0.2,0.1,0.2l0.2,0.7c0.1,0.2,0.1,0.4,0,0.7c0,0.1-0.1,0.3-0.2,0.4c0,0.1-0.1,0.1-0.1,0.2
	c0.2,0.2,0.2,0.5,0.2,0.8c0,0.2,0,0.3-0.1,0.5l0.8,5.4c0.5,0.1,0.8,0.5,0.8,1.1c0,0.1,0,0.1,0,0.2l0,0.2c0.1,0.2,0.2,0.4,0.2,0.6
	v0.6c0,0.1,0,0.1,0,0.2c0.3,0.2,0.6,0.6,0.6,1c0,0.1,0,0.2,0,0.3l0.1,0.4c0.1,0.2,0.2,0.4,0.2,0.6v0.3c0.4,0.2,0.7,0.6,0.7,1
	c0,0.1,0,0.2,0,0.3l0.1,0.4c0.2,0.2,0.3,0.4,0.3,0.7v0.9c0,0.1,0,0.3-0.1,0.4v5.5h0.5c0.3,0,0.6,0.1,0.7,0.3h0.4v-4.7
	c0-0.1-0.1-0.2-0.1-0.3v-0.7c0-0.2,0.1-0.5,0.2-0.6l0-0.2c0-0.1,0-0.1,0-0.2c0-0.4,0.2-0.8,0.6-1V25c0-0.2,0.1-0.4,0.2-0.6l0-0.2
	c0-0.1,0-0.2,0-0.2c0-0.4,0.2-0.7,0.4-0.9c0,0,0,0,0,0v-0.5c0-0.2,0.1-0.4,0.2-0.6l0-0.1c0,0,0-0.1,0-0.1c0-0.5,0.3-0.9,0.7-1
	l0.6-4.2c0-0.1-0.1-0.3-0.1-0.4c0-0.2,0.1-0.5,0.2-0.7c0-0.1,0-0.1,0-0.2c0-0.2,0-0.4,0.1-0.5c0-0.5,0.5-0.9,1-0.9H43
	c0.5,0,1,0.4,1,1c0.1,0.2,0.1,0.3,0.1,0.5c0,0.1,0,0.1,0,0.2c0.1,0.2,0.2,0.4,0.2,0.7c0,0.1,0,0.3-0.1,0.4l0.6,4.2
	c0.4,0.2,0.7,0.5,0.7,1c0,0.1,0,0.1,0,0.2l0,0.1c0.1,0.2,0.2,0.3,0.2,0.5V23c0,0,0,0,0,0c0.3,0.2,0.4,0.5,0.4,0.9c0,0.1,0,0.2,0,0.2
	l0,0.2c0.1,0.2,0.2,0.4,0.2,0.6v0.1c0.3,0.2,0.6,0.5,0.6,1c0,0.1,0,0.1,0,0.2l0,0.2c0.1,0.2,0.2,0.4,0.2,0.6v0.7
	c0,0.1,0,0.3-0.1,0.4v27.2C47.1,55.9,46.6,56.4,46.1,56.4z M18.9,54.4h26.2V28.5c-0.5-0.1-0.8-0.5-0.8-1v-1.3
	c-0.4-0.2-0.6-0.5-0.6-0.9v-1.4c-0.4-0.2-0.6-0.5-0.6-0.9v-0.4l-0.2-1.3l-0.2,1.3v0.4c0,0.4-0.2,0.8-0.6,0.9v1.4
	c0,0.4-0.3,0.8-0.6,0.9v1.3c0,0.5-0.3,0.9-0.8,1v6.1c0,0.6-0.4,1-1,1h-0.8c-0.3,0-0.5-0.1-0.7-0.3c0,0,0,0,0,0h-0.6
	c-0.3,0-0.5-0.1-0.7-0.3c0,0,0,0,0,0H36c-0.6,0-1-0.4-1-1v-6.8c-0.5,0-1-0.5-1-1v-1.8c-0.4-0.1-0.8-0.5-0.8-1v-1.9
	c-0.4-0.1-0.7-0.5-0.7-1v-0.5L32,16.9l-0.5,3.2v0.5c0,0.5-0.3,0.8-0.7,1v1.9c0,0.5-0.3,0.9-0.8,1v1.8c0,0.5-0.4,1-1,1V34
	c0,0.6-0.4,1-1,1h-0.8c0,0,0,0,0,0c-0.2,0.2-0.4,0.3-0.7,0.3h-0.6c0,0,0,0,0,0c-0.2,0.2-0.4,0.3-0.7,0.3h-0.8c-0.6,0-1-0.4-1-1v-6.1
	c-0.5-0.1-0.8-0.5-0.8-1v-1.3c-0.4-0.2-0.6-0.5-0.6-0.9v-1.4c-0.4-0.2-0.6-0.5-0.6-0.9v-0.4l-0.2-1.3l-0.2,1.3v0.4
	c0,0.4-0.2,0.8-0.6,0.9v1.4c0,0.4-0.3,0.8-0.6,0.9v1.3c0,0.5-0.3,0.9-0.8,1V54.4z"/>
</svg>
