<?xml version="1.0" encoding="utf-8"?>
<!-- Generator: Adobe Illustrator 17.1.0, SVG Export Plug-In . SVG Version: 6.00 Build 0)  -->
<!DOCTYPE svg PUBLIC "-//W3C//DTD SVG 1.1//EN" "http://www.w3.org/Graphics/SVG/1.1/DTD/svg11.dtd">
<svg version="1.1" id="Layer_1" xmlns="http://www.w3.org/2000/svg" xmlns:xlink="http://www.w3.org/1999/xlink" x="0px" y="0px"
	 viewBox="0 0 64 64" enable-background="new 0 0 64 64" xml:space="preserve">
<g>
	<path d="M46.9,26.2c0-0.1-0.2-0.1-0.2-0.2c0-0.4,0.3-0.8-0.7-1V25c0-0.2,0.1-0.4,0-0.6l0.1-0.2c0-0.1,0.2-0.2,0.2-0.2
		c0-0.4-0.2-0.7-0.2-0.9c0,0,0,0,0,0v-0.5c0-0.2-0.2-0.4-0.3-0.5l-0.1-0.1c0-0.1,0-0.1,0-0.2c0-0.5-0.3-0.9-0.7-1l-0.6-4.2
		c0-0.1,0.1-0.3,0.1-0.4c0-0.2-0.1-0.5-0.2-0.7c0-0.1,0-0.1,0-0.2c0-0.2,0-0.3-0.1-0.4c0-0.5-0.5-0.8-1-0.8h-0.2c-0.5,0-1,0.3-1,0.8
		c-0.1,0.2-0.1,0.3-0.1,0.5c0,0.1,0,0.1,0,0.2c-0.1,0.2-0.2,0.4-0.2,0.7c0,0.1,0,0.3,0.1,0.4l-0.6,4.2c-0.4,0.2-0.7,0.5-0.7,1
		c0,0,0,0.1,0,0.1l0,0.1c-0.1,0.2-0.2,0.4-0.2,0.6V23c0,0,0,0,0,0c0,0.2-0.4,0.5-0.4,0.9c0,0.1,0,0.2,0,0.2l-0.2,0.2
		C39.3,24.5,39,24.7,39,25v0.1c0,0.2-0.4,0.5-0.4,1c0,0.1,0.1,0.1,0.1,0.2l0.2,0.2c-0.1,0.2,0,0.4,0,0.6v0.7c0,0.1,0,0.2,0,0.3V33
		h-0.7c-0.2,0-0.4,0-0.7,0H37v-6c0-0.1,0-0.3,0-0.4v-0.9c0-0.3-0.1-0.5-0.2-0.7l-0.1-0.4c0-0.1,0-0.2,0-0.3c0-0.5-0.7-0.9-0.7-1
		v-0.3c0-0.2-0.1-0.5-0.2-0.6l0-0.4c0-0.1,0-0.2,0-0.3c0-0.4-0.4-0.8-0.7-1c0-0.1-0.1-0.1-0.1-0.2V20c0-0.2,0-0.5-0.1-0.6l0-0.2
		c0-0.1,0.1-0.1,0.1-0.2c0-0.5-0.3-0.9-0.8-1.1l-0.8-5.4c0.1-0.2,0.1-0.3,0.1-0.5c0-0.3-0.1-0.6-0.2-0.8c0.1,0,0.1-0.1,0.1-0.2
		c0.1-0.1,0.2-0.3,0.2-0.4c0.1-0.3,0-0.5,0-0.7l-0.2-0.7c0-0.1-0.1-0.2-0.1-0.2c0-0.1-0.1-0.2-0.2-0.2c0,0,0-0.1,0-0.1
		c-0.1-0.2-0.2-0.4-0.4-0.5c-0.1-0.1-0.3-0.2-0.5-0.2l0-0.1c-0.2-0.3-0.5-0.5-0.9-0.4c-0.3,0-0.7,0.2-0.8,0.5l-0.1,0.2
		c-0.2,0.3-0.2,0.6-0.1,0.9c0,0.1,0.1,0.2,0.2,0.3c0,0.1,0.2,0.2,0.2,0.3c0,0.1,0.4,0.2,0.4,0.3v0.6c0,0.2-0.2,0.3-0.1,0.4l-0.1,0.2
		c-0.1,0.2-0.3,0.5-0.3,0.8c0,0.2,0,0.3,0.1,0.5L29.8,18C29.3,18.1,29,18.5,29,19c0,0.1,0,0.1,0,0.2l0.1,0.2C29,19.6,29,19.8,29,20
		v0.6c0,0.1-0.1,0.1-0.1,0.2c-0.3,0.2-0.6,0.6-0.6,1c0,0.1,0,0.2,0,0.3l0,0.4c-0.1,0.2-0.2,0.4-0.2,0.6v0.3c0,0.2-0.7,0.6-0.7,1
		c0,0.1,0,0.2,0,0.3l0,0.4c-0.2,0.2-0.3,0.4-0.3,0.7v0.9c0,0.1,0,0.3,0,0.4v6h-0.5c-0.3,0-0.6,0-0.7,0H25v-4.8c0-0.1,0-0.2,0-0.4
		v-0.7c0-0.2,0.1-0.5,0-0.6l0.1-0.2c0-0.1,0.3-0.1,0.3-0.2c0-0.4-0.3-0.8-0.3-1V25c0-0.2-0.3-0.4-0.4-0.6l-0.1-0.2
		c0-0.1,0-0.2,0-0.2c0-0.4-0.5-0.7-0.5-0.9c0,0,0,0,0,0v-0.5c0-0.2-0.1-0.4-0.2-0.5l0-0.1c0-0.1,0-0.1,0-0.2c0-0.5-0.3-0.9-0.7-1
		l-0.6-4.2c0-0.1,0.1-0.3,0.1-0.4c0-0.2-0.1-0.5-0.2-0.7c0-0.1,0-0.1,0-0.2c0-0.2,0-0.3-0.1-0.4c0-0.5-0.5-0.8-1-0.8h-0.2
		c-0.5,0-1,0.3-1,0.8c-0.1,0.2-0.1,0.3-0.1,0.5c0,0.1,0,0.1,0,0.2c-0.1,0.2-0.2,0.4-0.2,0.7c0,0.1,0,0.3,0.1,0.4l-0.6,4.2
		c-0.4,0.2-0.7,0.5-0.7,1c0,0,0,0.1,0,0.1l-0.2,0.1c-0.1,0.2-0.3,0.4-0.3,0.6V23c0,0,0,0,0,0c0,0.2-0.3,0.5-0.3,0.9
		c0,0.1,0.1,0.2,0.1,0.2l0.2,0.2c-0.1,0.2,0,0.4,0,0.6v0.1c-1,0.2-0.7,0.5-0.7,1c0,0.1-0.1,0.1-0.1,0.2l0,0.2
		c-0.1,0.2-0.2,0.4-0.2,0.6v0.7c0,0.1,0,0.2,0,0.3v27.2c0,0.6,0.4,0.6,0.9,0.6h28.2c0.6,0,0.9-0.1,0.9-0.6V28.2c0-0.1,0-0.2,0-0.4
		v-0.7c0-0.2,0-0.5-0.2-0.6L46.9,26.2z M45,54H19V28.5c0-0.1,1-0.5,1-1v-1.3c0-0.1,0-0.5,0-0.9v-1.4c1-0.2,1-0.5,1-0.9v-0.4v-1.3
		v1.3v0.4c0,0.4,1,0.8,1,0.9v1.4c0,0.4,0,0.8,1,0.9v1.3c0,0.5,0,0.9,0,1v6.1c0,0.6,0.8,1.4,1.3,1.4h0.8c0.3,0,0.5-1,0.7-1
		c0,0,0,0,0,0h0.6c0.3,0,0.5,0,0.7,0c0,0,0,0,0,0H28c0.6,0,1-0.4,1-1v-6.8c1,0,1-0.5,1-1v-1.8c0-0.1,1-0.5,1-1v-1.9c0-0.1,1-0.5,1-1
		v-0.5v-3.2v3.2v0.5c0,0.5,1,0.8,1,1v1.9c0,0.5,1,0.8,1,1v1.8c0,0.5,0,1,1,1V34c0,0.6,0.4,1,1,1h0.8c0,0,0,0,0,0c0.2,0,0.4,0,0.7,0
		h0.6c0,0,0,0,0,0c0.2,0,0.4,1,0.7,1h0.8c0.6,0,1.3-0.9,1.3-1.4v-6.1c0-0.1,0-0.5,0-1v-1.3c1-0.1,1-0.5,1-0.9v-1.4
		c0-0.2,1-0.5,1-0.9v-0.4v-1.3v1.3v0.4c0,0.4,0,0.8,1,0.9v1.4c0,0.4,0,0.8,0,0.9v1.3c0,0.5,1,0.9,1,1V54z"/>
</g>
</svg>
