<?xml version="1.0" encoding="utf-8"?>
<!-- Generator: Adobe Illustrator 17.1.0, SVG Export Plug-In . SVG Version: 6.00 Build 0)  -->
<!DOCTYPE svg PUBLIC "-//W3C//DTD SVG 1.1//EN" "http://www.w3.org/Graphics/SVG/1.1/DTD/svg11.dtd">
<svg version="1.1" id="Layer_1" xmlns="http://www.w3.org/2000/svg" xmlns:xlink="http://www.w3.org/1999/xlink" x="0px" y="0px"
	 viewBox="0 0 64 64" enable-background="new 0 0 64 64" xml:space="preserve">
<g>
	<path d="M11.1,46h21.4c0,0,0.1,0,0.1,0c0,0,0.1,0,0.1,0h6.4c0.4,0,0.8-0.3,0.9-0.7l3.3-9.7l2.3,9.7c0.1,0.5,0.5,0.8,1,0.8h6.8
		c0.3,0,0.6-0.2,0.8-0.4c0.2-0.3,0.2-0.6,0.1-0.9l-9.4-26c-0.1-0.4-0.5-0.7-0.9-0.7c0,0,0,0-0.1,0H21.7c-0.4,0-0.8,0.3-0.9,0.6
		l-10.6,26c-0.1,0.3-0.1,0.7,0.1,1C10.4,45.8,10.7,46,11.1,46z M52,44h-4.6l-2.9-12.2C44.4,31.3,44,31,43.6,31c-0.4,0-0.9,0.3-1,0.7
		L38.4,44H34l10-22.3L52,44z M22.4,20h20.1L31.8,44H12.6L22.4,20z"/>
	<path d="M57.5,40.5c-0.5-0.1-1.1,0.2-1.2,0.7l-0.8,3.5c-0.1,0.5,0.2,1.1,0.7,1.2c0.1,0,0.2,0,0.2,0c0.5,0,0.9-0.3,1-0.8l0.8-3.5
		C58.4,41.2,58,40.7,57.5,40.5z"/>
	<path d="M7.7,46c0.1,0,0.2,0,0.2,0c0.5-0.1,0.9-0.7,0.7-1.2l-1-3.8c-0.1-0.5-0.7-0.9-1.2-0.7c-0.5,0.1-0.9,0.7-0.7,1.2l1,3.8
		C6.9,45.7,7.3,46,7.7,46z"/>
</g>
</svg>
