<?xml version="1.0" encoding="utf-8"?>
<!-- Generator: Adobe Illustrator 17.1.0, SVG Export Plug-In . SVG Version: 6.00 Build 0)  -->
<!DOCTYPE svg PUBLIC "-//W3C//DTD SVG 1.1//EN" "http://www.w3.org/Graphics/SVG/1.1/DTD/svg11.dtd">
<svg version="1.1" id="Layer_1" xmlns="http://www.w3.org/2000/svg" xmlns:xlink="http://www.w3.org/1999/xlink" x="0px" y="0px"
	 viewBox="0 0 500 500" enable-background="new 0 0 500 500" xml:space="preserve">
<g>
	<path d="M439,149.5l-49.4-18.2l-27.9-41.5c-1.3-1.9-3.5-3.1-5.8-3.1c-10.2,0-18,9.1-20.5,23.6l-4.6,26.4
		c-0.4,1.8-4.2,16.9-11.6,31.8c-6.6,13.3-17.4,29.1-31.3,28.5c-0.1,0-0.2,0-0.3,0H148.2c-11.7,0-22.4,4.2-30.8,11.1c0,0,0,0-0.1,0
		C86.5,208.1,52,225.3,52,250c0,3.9,3.1,7,7,7h41v6.1c0,12.4,4.6,24.2,13,33.2l-23.1,66c0,0,0,0.1-0.1,0.1c0,0.1-0.1,0.2-0.1,0.3
		c0,0.1-0.1,0.2-0.1,0.4c0,0.1,0,0.2-0.1,0.3c0,0.1,0,0.2-0.1,0.4c0,0.1,0,0.3,0,0.4c0,0.1,0,0.2,0,0.3c0,0.7,0.1,1.4,0.3,2.1
		c0,0,0,0.1,0,0.1c0.1,0.2,0.1,0.4,0.2,0.6c0,0.1,0,0.1,0.1,0.2c0.1,0.2,0.1,0.3,0.2,0.5c0,0,0,0,0,0l21.6,41.6
		c1.2,2.3,3.6,3.7,6.2,3.7h14.8c3.9,0,7-3.1,7-7s-3.1-7-7-7h-10.5l-16.7-32.1l50-31.8l-9.7,27.1c0,0,0,0.1,0,0.1
		c-0.1,0.2-0.1,0.3-0.1,0.5c0,0.1,0,0.2-0.1,0.2c0,0.2-0.1,0.3-0.1,0.5c0,0.1,0,0.1,0,0.2c0,0.2,0,0.4-0.1,0.6c0,0,0,0.1,0,0.1
		c0,0.9,0.1,1.9,0.5,2.8c0,0,0,0,0,0c0.1,0.2,0.2,0.4,0.3,0.6c0,0,0,0,0,0l21.6,41.6c1.2,2.3,3.6,3.7,6.2,3.7h18.1c3.9,0,7-3.1,7-7
		s-3.1-7-7-7h-13.8l-16.7-31.9l87.1-55.1h29.5l-10.9,27c-0.5,1.2-0.6,2.4-0.4,3.6l10.8,64.7c0.6,3.4,3.5,5.7,6.9,5.7h15.7
		c3.9,0,7-3.1,7-7s-3.1-7-7-7h-9.8l-9.5-56.7l12.2-30.3h29l-10.9,27c-0.5,1.2-0.6,2.4-0.4,3.6l10.8,64.7c0.6,3.4,3.5,5.7,6.9,5.7
		h15.7c3.9,0,7-3.1,7-7s-3.1-7-7-7h-9.8l-9.5-57l12.8-31.9c21.3-5.1,37.1-24.2,37.1-47v-3l8.7-52.5c7.2-0.5,19.6-1.2,25.2-1.2
		c9.2,0,15.8-2.3,21.2-7.5c4.8-4.6,8.7-11.5,13-23.2l3.8-7.2c0.3-0.5,0.5-1.1,0.6-1.6c1.1-4.7,0.4-9.3-1.8-12.6
		C444,151.8,441.7,150.2,439,149.5z M105.3,223.1c-3.2,6-5.1,12.9-5.5,19.9H68C73.3,234,88.3,225.8,105.3,223.1z M434,163l-3.5,6.7
		c-0.1,0.3-0.3,0.5-0.4,0.8c-7.4,19.9-11.9,21.9-21.2,21.9c-8.6,0-30.7,1.5-31.7,1.6c-3.2,0.2-5.9,2.6-6.4,5.8l-9.7,58.6
		c0,0,0,0.1,0,0.1c0,0.2,0,0.3-0.1,0.5c0,0.1,0,0.2,0,0.3c0,0.1,0,0.2,0,0.3v3.6c0,19-15.4,34.9-34.4,34.9h-38.1c0,0,0,0,0,0h-41.7
		c-0.1,0-0.1-0.2-0.2-0.2c-0.1,0-0.3-0.1-0.4-0.1c-0.1,0-0.2,0-0.3,0c-0.1,0-0.2,0-0.4,0c-0.1,0-0.2,0-0.4,0.1c-0.1,0-0.2,0-0.3,0.1
		c-0.1,0-0.3,0.1-0.4,0.1c-0.1,0-0.2,0.1-0.3,0.1c-0.1,0.1-0.3,0.1-0.4,0.2c-0.1,0-0.1,0.1-0.2,0.1c-0.1,0.1-0.3,0.2-0.4,0.2
		c0,0-0.1,0.1-0.1,0.1l-77,49l9.7-27c0,0,0-0.1,0-0.1c0-0.1,0.1-0.3,0.1-0.4c0-0.1,0-0.2,0.1-0.2c0-0.1,0.1-0.3,0.1-0.4
		c0-0.1,0-0.2,0-0.3c0-0.1,0-0.2,0-0.4c0-0.1,0-0.2,0-0.3c0-0.1,0-0.3,0-0.4c0-0.1,0-0.2,0-0.3c0-0.1,0-0.3,0-0.4c0-0.1,0-0.1,0-0.2
		c0-0.2-0.1-0.3-0.1-0.5c0-0.1,0-0.1,0-0.2c0-0.2-0.1-0.3-0.1-0.5c0-0.1,0-0.1-0.1-0.2c0-0.1-0.1-0.3-0.2-0.4c0-0.1-0.1-0.2-0.1-0.2
		c-0.1-0.1-0.1-0.2-0.2-0.3c-0.1-0.1-0.1-0.2-0.2-0.3c0,0,0-0.1-0.1-0.1c0-0.1-0.1-0.1-0.1-0.2c-0.1-0.1-0.1-0.2-0.2-0.3
		c-0.1-0.1-0.1-0.2-0.2-0.3c-0.1-0.1-0.2-0.2-0.2-0.3c-0.1-0.1-0.2-0.2-0.2-0.2c-0.1-0.1-0.2-0.2-0.2-0.2c-0.1-0.1-0.2-0.2-0.3-0.2
		c-0.1-0.1-0.2-0.1-0.3-0.2c-0.1-0.1-0.2-0.1-0.3-0.2c-0.1-0.1-0.2-0.1-0.3-0.2c-0.1-0.1-0.2-0.1-0.3-0.2c-0.1,0-0.2-0.1-0.3-0.1
		c-0.1-0.1-0.3-0.1-0.4-0.2c-0.1,0-0.1-0.1-0.2-0.1c0,0-0.1,0-0.1,0c-0.1,0-0.2-0.1-0.4-0.1c-0.1,0-0.2-0.1-0.3-0.1
		c-0.1,0-0.2,0-0.3-0.1c-0.1,0-0.2,0-0.4-0.1c-0.1,0-0.2,0-0.3,0c-0.1,0-0.3,0-0.4,0c-0.1,0-0.2,0-0.2,0c-0.1,0-0.3,0-0.4,0
		c-0.1,0-0.2,0-0.3,0c-0.1,0-0.3,0-0.4,0c-0.1,0-0.2,0-0.3,0.1c-0.1,0-0.2,0-0.4,0.1c-0.1,0-0.2,0.1-0.3,0.1c-0.1,0-0.2,0.1-0.3,0.1
		c-0.1,0-0.2,0.1-0.3,0.1c-0.1,0.1-0.2,0.1-0.4,0.2c-0.1,0-0.2,0.1-0.2,0.1c-0.1,0.1-0.3,0.1-0.4,0.2c0,0,0,0-0.1,0l-55.7,35.5
		l17.9-51.2c1-3,0.1-6.2-2.3-7.9c-7.2-6.5-11.3-15.8-11.3-25.6v-17.5c0-19,15.2-34.5,34.2-34.5h139.3c11.8,0,29.1-5.6,44.2-36.3
		c8.5-17.2,12.5-34.2,12.7-34.9c0-0.1,0.1-0.3,0.1-0.4l4.6-26.6c0.8-5,2.4-8.5,4.1-10.4l26,38.7c0.8,1.2,2,2.2,3.4,2.7l51.4,18.9
		C434,162.7,434,162.8,434,163z"/>
</g>
</svg>
