<?xml version="1.0" encoding="utf-8"?>
<!-- Generator: Adobe Illustrator 17.1.0, SVG Export Plug-In . SVG Version: 6.00 Build 0)  -->
<!DOCTYPE svg PUBLIC "-//W3C//DTD SVG 1.1//EN" "http://www.w3.org/Graphics/SVG/1.1/DTD/svg11.dtd">
<svg version="1.1" id="Layer_1" xmlns="http://www.w3.org/2000/svg" xmlns:xlink="http://www.w3.org/1999/xlink" x="0px" y="0px"
	 viewBox="0 0 500 500" enable-background="new 0 0 500 500" xml:space="preserve">
<g>
	<path d="M86,159h328c5.5,0,10-4.5,10-10s-4.5-10-10-10H86c-5.5,0-10,4.5-10,10S80.5,159,86,159z"/>
	<path d="M86,261h328c5.5,0,10-4.5,10-10s-4.5-10-10-10H86c-5.5,0-10,4.5-10,10S80.5,261,86,261z"/>
	<path d="M86,362h328c5.5,0,10-4.5,10-10s-4.5-10-10-10H86c-5.5,0-10,4.5-10,10S80.5,362,86,362z"/>
</g>
</svg>
