<?xml version="1.0" encoding="utf-8"?>
<!-- Generator: Adobe Illustrator 17.1.0, SVG Export Plug-In . SVG Version: 6.00 Build 0)  -->
<!DOCTYPE svg PUBLIC "-//W3C//DTD SVG 1.1//EN" "http://www.w3.org/Graphics/SVG/1.1/DTD/svg11.dtd">
<svg version="1.1" id="Layer_1" xmlns="http://www.w3.org/2000/svg" xmlns:xlink="http://www.w3.org/1999/xlink" x="0px" y="0px"
	 viewBox="0 0 500 500" enable-background="new 0 0 500 500" xml:space="preserve">
<g>
	<path d="M430.8,84c-2.3-3-7.4-6.5-26.4-7.4c-13-0.6-29.7,0.2-47.2,2.3c-28,3.3-82.9,13-136.8,40.1c-54.4,27.4-92.4,64.7-113,110.8
		c-14.5,32.5-13.7,85.8-5.7,108.8c-2.5,2.9-5.4,6-8.4,9.2c-14.8,15.9-31.5,33.9-29.8,51.2c0.7,7.4,4.7,13.7,11.7,18.8
		c5.4,3.9,11.2,5.9,17.3,5.9c8.5,0,17.7-3.7,27.5-11.2c11.2-8.5,21.6-20.5,31.4-32.5c13.4,5.7,47.7,15.5,103.3-0.6
		c41.3-12,77.8-37.6,108.6-76.1c30.8-38.6,48.5-81.2,58-110.2C435,150.7,442.8,99.6,430.8,84z M422,124.3
		c-1.7,19-6.8,41.9-14.2,64.5c-9.1,27.9-26.2,68.8-55.6,105.8c-28.9,36.2-63,60.2-101.5,71.4c-23,6.7-44.6,9.3-64.1,7.8
		c-19.4-1.5-30.1-6.5-33.8-8.6c-3-1.7-6.8-1-8.9,1.7c-16.9,21.1-35.7,42.6-51.3,42.6c-3.3,0-6.4-1-9.3-3.1c-4.9-3.6-5.7-6.7-5.9-8.8
		c-1.1-11,14-27.3,26.2-40.3c4.3-4.6,8.3-8.9,11.6-13c1.7-2.1,2.1-5,0.9-7.5c-3.2-6.7-6.4-23.2-6.2-44.8c0.2-21.9,4-42.5,10.2-56.5
		c18.3-40.9,62-96.2,166.6-127.6c44.4-13.3,84.5-17.4,109-17.4c5.4,0,10.1,0.2,13.9,0.5c-25.6,24.3-104,98.3-158.7,145.8
		c-78,67.6-93.1,83.8-93.7,84.5c-2.6,2.8-2.4,7.3,0.4,9.9c2.8,2.6,7.3,2.4,9.9-0.4c0.1-0.2,15.7-16.8,92.6-83.4
		c56.9-49.3,139-127,161.7-148.6C422.7,103.9,423.1,112.1,422,124.3z"/>
</g>
</svg>
