<?xml version="1.0" encoding="utf-8"?>
<!-- Generator: Adobe Illustrator 17.1.0, SVG Export Plug-In . SVG Version: 6.00 Build 0)  -->
<!DOCTYPE svg PUBLIC "-//W3C//DTD SVG 1.1//EN" "http://www.w3.org/Graphics/SVG/1.1/DTD/svg11.dtd">
<svg version="1.1" id="Layer_1" xmlns="http://www.w3.org/2000/svg" xmlns:xlink="http://www.w3.org/1999/xlink" x="0px" y="0px"
	 viewBox="0 0 64 64" enable-background="new 0 0 64 64" xml:space="preserve">
<g>
	<path d="M12,41.9c0-1.4,0.4-2.8,0.7-4c1.4-4.9,5.7-9.5,10.9-9.5c6.5,0,7.4,5,7.4,10V56h2V41.9c0-1.7,0.3-3.2,0.7-4.5
		c1.3-4.6,5.8-8.9,10.6-8.9c6.2,0,7.6,4.5,7.6,10V56h2V37.6c0-7-2.2-11.5-9.8-11.5c-5.1,0-9.5,3.9-11.2,7.9h-0.1
		c-0.6-5-3.4-8.1-9.3-8.1c-4.6,0-9.8,4.1-11.3,8.1h-0.1c0,0-0.2-0.6-0.2-2v-5h-2v29h2V41.9z"/>
	<path d="M25.6,21.8c5.7-7,12.9-10.1,13-10.1c0.2-0.1,0.5,0,0.6,0.3c0.1,0.3,0,0.5-0.3,0.6c-0.1,0-7,3-12.6,9.7
		c0.4,0.2,0.7,0.4,1.1,0.5c1.7,0.7,3.6,1.1,5.9,1.1c2.4,0,4.5-0.3,6.2-1c1.7-0.7,3-1.6,3.8-2.9c0.3-0.5,0.6-1,0.8-1.6l0,0.2
		c1.5-4.1,2.9-7.8,6.2-8.1c1.7-0.1,3.2,0.2,3.2,0.2c-0.2,0-4-3.4-12.4-3c-8.2,0.3-14.4,4.3-16.5,5.9c-2,1.6-2,3.3-2,3.3
		c0,1.1,0.4,2.1,1.2,3.2C24.4,20.8,24.9,21.4,25.6,21.8z"/>
</g>
</svg>
