<?xml version="1.0" encoding="utf-8"?>
<!-- Generator: Adobe Illustrator 17.1.0, SVG Export Plug-In . SVG Version: 6.00 Build 0)  -->
<!DOCTYPE svg PUBLIC "-//W3C//DTD SVG 1.1//EN" "http://www.w3.org/Graphics/SVG/1.1/DTD/svg11.dtd">
<svg version="1.1" id="Layer_1" xmlns="http://www.w3.org/2000/svg" xmlns:xlink="http://www.w3.org/1999/xlink" x="0px" y="0px"
	 viewBox="0 0 64 64" enable-background="new 0 0 64 64" xml:space="preserve">
<g>
	<path d="M32,32.4c-7.1,0-12.9-5.8-12.9-12.9c0-7.1,5.8-12.9,12.9-12.9s12.9,5.8,12.9,12.9C44.9,26.6,39.1,32.4,32,32.4z M32,8.7
		c-6,0-10.9,4.9-10.9,10.9S26,30.4,32,30.4s10.9-4.9,10.9-10.9S38,8.7,32,8.7z"/>
	<path d="M52,57.3H12V38.5c0-4.5,3.7-8.2,8.2-8.2h23.5c4.5,0,8.2,3.7,8.2,8.2V57.3z M14,55.3h36V38.5c0-3.4-2.8-6.2-6.2-6.2H20.2
		c-3.4,0-6.2,2.8-6.2,6.2V55.3z"/>
</g>
</svg>
