<?xml version="1.0" encoding="utf-8"?>
<!-- Generator: Adobe Illustrator 17.1.0, SVG Export Plug-In . SVG Version: 6.00 Build 0)  -->
<!DOCTYPE svg PUBLIC "-//W3C//DTD SVG 1.1//EN" "http://www.w3.org/Graphics/SVG/1.1/DTD/svg11.dtd">
<svg version="1.1" id="Layer_1" xmlns="http://www.w3.org/2000/svg" xmlns:xlink="http://www.w3.org/1999/xlink" x="0px" y="0px"
	 viewBox="0 0 64 64" enable-background="new 0 0 64 64" xml:space="preserve">
<g>
	<path d="M56.1,19.1l-6.2-2.3l-3.5-5.3c-0.2-0.3-0.5-0.4-0.8-0.4c-1.4,0-2.4,1.2-2.7,3.1l-0.6,3.2c-0.5,2.2-2.4,7.5-5.4,7.5H19
		c-1.5,0-2.9,0.6-4,1.5c-4,0-8.4,2.3-8.4,5.5c0,0.6,0.4,1,1,1H13v0.7c0,1.6,0.5,3.1,1.5,4.3l-3,8.3c0,0,0,0,0,0.1c0,0.1,0,0.1,0,0.2
		c0,0.1,0,0.1,0,0.2c0,0.1,0,0.1,0.1,0.2c0,0,0,0.1,0,0.1l2.7,5.4c0.2,0.3,0.5,0.6,0.9,0.6h1.9c0.6,0,1-0.4,1-1s-0.4-1-1-1h-1.3
		l-2-4l6-3.9l-1.1,3.1c0,0,0,0,0,0.1c0,0.1,0,0.1,0,0.2c0,0.1,0,0.1,0,0.2c0,0.1,0,0.1,0.1,0.2c0,0,0,0.1,0,0.1l2.7,5.4
		c0.2,0.3,0.5,0.6,0.9,0.6h2.3c0.6,0,1-0.4,1-1s-0.4-1-1-1h-1.7l-2-4l11-7h3.6l-1.3,3.3c-0.1,0.2-0.1,0.3-0.1,0.5l1.4,8.3
		c0.1,0.5,0.5,0.9,1,0.9h2c0.6,0,1-0.4,1-1s-0.4-1-1-1h-1.2l-1.2-7.2l1.5-3.8h3.5l-1.3,3.3c-0.1,0.2-0.1,0.3-0.1,0.5l1.4,8.3
		c0.1,0.5,0.5,0.9,1,0.9h2c0.6,0,1-0.4,1-1s-0.4-1-1-1h-1.2l-1.2-7.2l1.6-4c2.7-0.7,4.7-3.2,4.7-6.1v-0.4l1.1-6.6
		c0.9-0.1,2.4-0.1,3.1-0.1c2.5,0,3.5-1.4,4.5-4l0.5-0.9c0-0.1,0.1-0.2,0.1-0.2c0.1-0.6,0.1-1.2-0.2-1.7
		C56.8,19.4,56.5,19.2,56.1,19.1z M13.4,28.7c-0.3,0.7-0.5,1.5-0.6,2.3H9C9.7,30,11.4,29.1,13.4,28.7z M54.9,21.7c0,0,0,0.1-0.1,0.1
		c-1,2.6-1.5,2.7-2.6,2.7c-1.1,0-3.9,0.2-4,0.2c-0.5,0-0.8,0.4-0.9,0.8L46,33c0,0,0,0.1,0,0.1c0,0,0,0.1,0,0.1v0.5
		c0,2.4-1.9,4.3-4.2,4.3H31.6c0,0-0.1,0-0.1,0c-0.1,0-0.1,0-0.2,0c-0.1,0-0.1,0-0.2,0.1c0,0-0.1,0-0.1,0l-9.5,6.1l1.1-3.1
		c0,0,0,0,0-0.1c0-0.1,0-0.1,0-0.2c0-0.1,0-0.1,0-0.2c0-0.1,0-0.1,0-0.2c0-0.1,0-0.1-0.1-0.2c0,0,0,0,0-0.1c0,0-0.1-0.1-0.1-0.1
		c0-0.1-0.1-0.1-0.1-0.1c-0.1,0-0.1-0.1-0.2-0.1c0,0-0.1,0-0.1-0.1c0,0,0,0-0.1,0c-0.1,0-0.1,0-0.2,0c-0.1,0-0.1,0-0.2,0
		c-0.1,0-0.1,0-0.2,0c-0.1,0-0.1,0-0.2,0.1c0,0,0,0-0.1,0l-6.8,4.3l2.2-6.2c0,0,0,0,0,0c0,0,0-0.1,0-0.1c0.1-0.4,0.1-0.7-0.2-1
		c-0.9-0.8-1.3-2-1.3-3.2v-2.2c0-2.4,1.7-4.4,4-4.4h17.7c5,0,7.2-8.1,7.4-9.1l0.6-3.3c0.1-0.5,0.2-0.9,0.4-1.1l3.2,4.8
		c0.1,0.2,0.3,0.3,0.5,0.4l6.4,2.4L54.9,21.7z"/>
</g>
</svg>
