<?xml version="1.0" encoding="utf-8"?>
<!-- Generator: Adobe Illustrator 17.1.0, SVG Export Plug-In . SVG Version: 6.00 Build 0)  -->
<!DOCTYPE svg PUBLIC "-//W3C//DTD SVG 1.1//EN" "http://www.w3.org/Graphics/SVG/1.1/DTD/svg11.dtd">
<svg version="1.1" id="Layer_1" xmlns="http://www.w3.org/2000/svg" xmlns:xlink="http://www.w3.org/1999/xlink" x="0px" y="0px"
	 viewBox="0 0 64 64" enable-background="new 0 0 64 64" xml:space="preserve">
<path fill="#231F20" d="M48.4,48.9H15.6c-3.2,0-5.8-2.6-5.8-5.8l0-18.3c0-1.5,0.6-3,1.7-4.1c1.1-1.1,2.5-1.7,4.1-1.7l2.7,0
	c0-0.8,0.7-1.5,1.5-1.5h5.8c0.8,0,1.5,0.7,1.5,1.5v0h2.6c0.5-1,0.8-1.6,0.9-2c0,0,0,0,0,0c0.4-0.8,1.3-1.8,3.3-1.9l8.7,0
	c1.7,0.1,2.8,0.7,3.4,2c0,0,0,0,0,0c0.2,0.4,0.5,1,0.9,1.9h1.3c3.2,0,5.8,2.6,5.8,5.8v18.3C54.2,46.3,51.6,48.9,48.4,48.9z
	 M21.2,46.9h27.2c2.1,0,3.8-1.7,3.8-3.8V24.8c0-2.1-1.7-3.8-3.8-3.8h-1.9c-0.4,0-0.8-0.2-0.9-0.6c-0.7-1.6-1-2.2-1.1-2.4
	c0,0,0,0,0-0.1c-0.3-0.7-1-0.8-1.7-0.8l-8.6,0c-0.6,0-1.3,0.1-1.6,0.8c0,0,0,0.1,0,0.1c-0.2,0.5-0.8,1.6-1.1,2.4
	c-0.2,0.4-0.5,0.6-0.9,0.6h-4.2c-0.6,0-1-0.4-1-1v-0.6h-4.9v0.3c2.4,4,3.6,8.9,3.6,14.3C24,38.8,23,43.2,21.2,46.9z M15.6,21
	c-1,0-2,0.4-2.7,1.1c-0.7,0.7-1.1,1.7-1.1,2.7l0,18.3c0,2.1,1.7,3.8,3.8,3.8h3.3c2-3.6,3.1-8.1,3.1-12.9c0-4.8-1.1-9.4-3.2-13H15.6z
	 M38.5,45.2c-6.1,0-11.1-5-11.1-11.1c0-6.1,5-11.1,11.1-11.1c6.1,0,11.1,5,11.1,11.1C49.5,40.3,44.6,45.2,38.5,45.2z M38.5,25.1
	c-5,0-9.1,4.1-9.1,9.1c0,5,4.1,9.1,9.1,9.1c5,0,9.1-4.1,9.1-9.1C47.5,29.2,43.5,25.1,38.5,25.1z M38.5,40.2c-3.3,0-6-2.7-6-6
	c0-3.3,2.7-6,6-6c3.3,0,6,2.7,6,6C44.5,37.5,41.8,40.2,38.5,40.2z M38.5,30.1c-2.2,0-4,1.8-4,4c0,2.2,1.8,4,4,4s4-1.8,4-4
	C42.5,31.9,40.7,30.1,38.5,30.1z M41.6,21.3h-6.2c-0.6,0-1-0.4-1-1s0.4-1,1-1h6.2c0.6,0,1,0.4,1,1S42.1,21.3,41.6,21.3z"/>
</svg>
