<?xml version="1.0" encoding="utf-8"?>
<!-- Generator: Adobe Illustrator 17.1.0, SVG Export Plug-In . SVG Version: 6.00 Build 0)  -->
<!DOCTYPE svg PUBLIC "-//W3C//DTD SVG 1.1//EN" "http://www.w3.org/Graphics/SVG/1.1/DTD/svg11.dtd">
<svg version="1.1" id="Layer_1" xmlns="http://www.w3.org/2000/svg" xmlns:xlink="http://www.w3.org/1999/xlink" x="0px" y="0px"
	 viewBox="0 0 500 500" enable-background="new 0 0 500 500" xml:space="preserve">
<g>
	<path d="M197.3,325.4c31.2,0,60.7-11.1,84-31.4l134.2,134.2l12.7-12.7L294,281.3c43.7-50.3,41.7-126.8-6.1-174.6
		c-24.2-24.2-56.4-37.5-90.6-37.5c-34.2,0-66.4,13.3-90.6,37.5c-50,50-50,131.2,0,181.2C130.9,312,163,325.4,197.3,325.4z
		 M119.4,119.4c20.8-20.8,48.5-32.3,77.9-32.3c29.4,0,57.1,11.5,77.9,32.3c42.9,42.9,42.9,112.8,0,155.7
		c-20.8,20.8-48.5,32.3-77.9,32.3c-29.4,0-57.1-11.5-77.9-32.3C76.4,232.2,76.4,162.3,119.4,119.4z"/>
</g>
</svg>
