<?xml version="1.0" encoding="utf-8"?>
<!-- Generator: Adobe Illustrator 17.1.0, SVG Export Plug-In . SVG Version: 6.00 Build 0)  -->
<!DOCTYPE svg PUBLIC "-//W3C//DTD SVG 1.1//EN" "http://www.w3.org/Graphics/SVG/1.1/DTD/svg11.dtd">
<svg version="1.1" id="Layer_1" xmlns="http://www.w3.org/2000/svg" xmlns:xlink="http://www.w3.org/1999/xlink" x="0px" y="0px"
	 viewBox="0 0 64 64" enable-background="new 0 0 64 64" xml:space="preserve">
<path d="M42.4,25.6c0-4.5-1.7-8.7-4.9-11.8c-3.2-3.2-7.4-4.9-11.8-4.9s-8.7,1.7-11.8,4.9c-6.5,6.5-6.5,17.2,0,23.7
	c3.2,3.2,7.4,4.9,11.8,4.9c4,0,7.7-1.4,10.7-3.9l17,17l2.1-2.1l-17-17C41,33.3,42.4,29.6,42.4,25.6z M15.9,35.3
	c-5.4-5.4-5.4-14.1,0-19.4c2.6-2.6,6-4,9.7-4s7.1,1.4,9.7,4c2.6,2.6,4,6,4,9.7c0,3.7-1.4,7.1-4,9.7s-6,4-9.7,4
	C21.9,39.4,18.5,37.9,15.9,35.3z"/>
</svg>
