<?xml version="1.0" encoding="utf-8"?>
<!-- Generator: Adobe Illustrator 17.1.0, SVG Export Plug-In . SVG Version: 6.00 Build 0)  -->
<!DOCTYPE svg PUBLIC "-//W3C//DTD SVG 1.1//EN" "http://www.w3.org/Graphics/SVG/1.1/DTD/svg11.dtd">
<svg version="1.1" id="Layer_1" xmlns="http://www.w3.org/2000/svg" xmlns:xlink="http://www.w3.org/1999/xlink" x="0px" y="0px"
	 viewBox="0 0 64 64" enable-background="new 0 0 64 64" xml:space="preserve">
<path d="M36.6,19.8c0-0.3,0-0.6,0.1-0.8c0-0.1,0-0.3,0-0.4c0.1-0.2,0.1-0.4,0.3-0.7c0,0,0.1-0.1,0.3-0.1l0.3,0.1
	c0.2-0.1,0.8,0.1,1.4,0.1H44V8h-7.6c-4.1,0-6.9,0.7-8.8,2.7c-1.8,2-2.6,4.6-2.6,8.3v4h-5v10h5v24h12V33h6l1.1-10h-7.5L36.6,19.8z
	 M41.2,31H35v24h-8V31h-5v-6h5v-6c0-3.2,0.7-5.4,2.1-7c1.5-1.5,3.8-2,7.3-2H42v6h-3.1c-0.9,0-1.5-0.2-2.1,0
	c-0.7,0.2-1.2,0.4-1.5,0.9L35.2,17c-0.2,0.5-0.2,0.8-0.3,1.1l0.1,0.1v0.2c0,0.1-0.2,0.2-0.2,0.4c0,0.3-0.1,0.7-0.1,1.1L34.6,25h7.3
	L41.2,31z"/>
</svg>
