<?xml version="1.0" encoding="utf-8"?>
<!-- Generator: Adobe Illustrator 17.1.0, SVG Export Plug-In . SVG Version: 6.00 Build 0)  -->
<!DOCTYPE svg PUBLIC "-//W3C//DTD SVG 1.1//EN" "http://www.w3.org/Graphics/SVG/1.1/DTD/svg11.dtd">
<svg version="1.1" id="Layer_1" xmlns="http://www.w3.org/2000/svg" xmlns:xlink="http://www.w3.org/1999/xlink" x="0px" y="0px"
	 viewBox="0 0 500 500" enable-background="new 0 0 500 500" xml:space="preserve">
<g>
	<path d="M300,220.8c-25.4,0-46,20.6-46,46c0,25.3,20.6,46,46,46s46-20.6,46-46C346,241.4,325.4,220.8,300,220.8z M300,298.7
		c-17.6,0-32-14.3-32-32c0-17.6,14.3-32,32-32s32,14.4,32,32C332,284.4,317.7,298.7,300,298.7z"/>
	<path d="M377,150h-10.4c-3.5-8-5.9-12.8-7.3-15.4c0,0,0,0,0-0.1c-4.6-9.5-13.2-14.3-25.7-14.7c-0.1,0-0.2,0.2-0.2,0.2h-66.9
		c-0.1,0-0.2-0.2-0.2-0.2c-12.2,0.4-20.6,5.2-25.2,14.4c-0.1,0.1-0.1,0.1-0.2,0.2c-1.3,2.6-3.7,7.6-7.4,15.6H212v-0.9
		c0-6.2-4.8-11.1-11-11.1h-44.8c-6.2,0-11.2,5-11.2,11.1v0.9h-22c-11.8,0-22.8,4.6-31.2,12.9c-8.3,8.3-12.9,19.4-12.9,31.2l0,142
		c0,24.3,19.8,43.9,44.1,43.9h254c24.3,0,44-19.4,44-43.7V194.1C421,169.8,401.3,150,377,150z M123,366c-16.6,0-30.1-13.3-30.1-29.9
		l0-142.1c0-8,3.1-15.6,8.8-21.2c5.7-5.7,13.2-8.8,21.3-8.8h25.1c16.1,28,24.9,63.8,24.9,101.6c0,37.3-8.6,73.4-24.2,100.4H123z
		 M407,336.3c0,16.6-13.4,29.7-30,29.7H164.7c14.6-28,22.3-63.1,22.3-100.4c0-41.8-10-79.9-28-110.6v-3h39v5.1
		c0,3.9,3.3,6.9,7.2,6.9H238c2.8,0,5.2-1.6,6.4-4.1c2.9-6.3,6.9-15.1,8.8-18.8c0.1-0.1,0.1-0.2,0.2-0.3c0.1-0.1,0.1,0,0.2-0.2
		c2.7-5.7,8.4-6.7,13.1-6.7h66.7c5,0,10.5,1,13.4,6.6c0.1,0.2,0.2,0.4,0.4,0.6c1,1.9,3.3,6.7,8.7,18.7c1.1,2.5,3.6,4.1,6.4,4.1H377
		c16.6,0,30,13.6,30,30.1V336.3z"/>
	<path d="M276.4,166h47.8c3.9,0,7-3.1,7-7s-3.1-7-7-7h-47.8c-3.9,0-7,3.1-7,7S272.6,166,276.4,166z"/>
	<path d="M300,181.6c-46.9,0-85.1,38.2-85.1,85.1c0,46.9,38.2,85.1,85.1,85.1c46.9,0,85.1-38.2,85.1-85.1
		C385.2,219.8,347,181.6,300,181.6z M300,337.9c-39.2,0-71.1-31.9-71.1-71.1c0-39.2,31.9-71.1,71.1-71.1c39.2,0,71.1,31.9,71.1,71.1
		C371.2,306,339.2,337.9,300,337.9z"/>
</g>
</svg>
