<?xml version="1.0" encoding="utf-8"?>
<!-- Generator: Adobe Illustrator 17.1.0, SVG Export Plug-In . SVG Version: 6.00 Build 0)  -->
<!DOCTYPE svg PUBLIC "-//W3C//DTD SVG 1.1//EN" "http://www.w3.org/Graphics/SVG/1.1/DTD/svg11.dtd">
<svg version="1.1" id="Layer_1" xmlns="http://www.w3.org/2000/svg" xmlns:xlink="http://www.w3.org/1999/xlink" x="0px" y="0px"
	 viewBox="0 0 500 500" enable-background="new 0 0 500 500" xml:space="preserve">
<g>
	<path d="M400.3,196.4c-18.1,0-35,4.9-49.6,13.4l-43.5-61.3l6.5-8.1c1,0.2,2,0.3,3.1,0.3c9.4,0,17.1-7.7,17.1-17.1
		c0-9.4-7.7-17.1-17.1-17.1c-9.4,0-17.1,7.7-17.1,17.1c0,3.2,0.9,6.2,2.5,8.8l-9.2,11.5c-2,2.4-2.1,6-0.3,8.6l6.7,9.6H180.2
		l-7.1-21.5c7-2.1,14.8-4.2,25.5-4.7c3.9-0.2,6.8-3.5,6.6-7.4c-0.2-3.9-3.5-6.8-7.3-6.7c-14.9,0.7-24.8,3.9-33.6,6.7
		c-7.2,2.3-12.9,4.1-19.8,4.1c-3.9,0-7,3.1-7,7s3.1,7,7,7c5.6,0,10.5-0.9,15.2-2.1l7.9,23.6l-22.7,39.4c-13.5-7-28.9-11-45.2-11
		c-54.3,0-98.6,44.2-98.6,98.5c0,54.3,44.2,98.6,98.6,98.6c42.8,0,79.2-27.4,92.8-65.5l26.2,2.2c0,0,0.1,0,0.1,0l0.1,0
		c0.1,0,0.2,0,0.2,0c0.1,0,0.2,0,0.3,0c17.4,0,31.9-12.2,34.7-29.2h14.4c3.9,0,7-3.1,7-7s-3.1-7-7-7h-14.8c-1.5-6-4.7-12.2-9.2-16.8
		l67.7-90.5l27,38c-22.8,18.1-37.4,46-37.4,77.2c0,54.3,44.2,98.6,98.5,98.6c54.3,0,98.6-44.2,98.6-98.6
		C498.9,240.6,454.7,196.4,400.3,196.4z M297.8,176L233,262.5c-4.2-1.7-8.7-2.8-13.5-2.8c-1.1,0-2.2,0.2-3.1,0.7
		c-0.8-0.2-1.6-0.3-2.5-0.3l-0.8,0.2L184.9,176H297.8z M217.6,273.4c0.6,0.2,1.2,0.3,1.9,0.3c1.6,0,3.2,0.2,4.7,0.5l-4.4,5.8
		L217.6,273.4C217.6,273.4,217.6,273.4,217.6,273.4z M173.5,185.8l25.3,75.7l-6.3,0.5c-6.8-19.2-19.5-35.7-35.7-47.3L173.5,185.8z
		 M184.2,294.9c0,6.2-0.7,12.3-2,18.1l-82-6.9c-0.2,0-0.4,0-0.6,0c-6.2,0-11.2-5-11.2-11.2c0-6.2,5-11.2,11.2-11.2
		c0.2,0,0.3,0,0.5,0c0,0,0.1,0,0.1,0l0,0c0.1,0,0.1,0,0.2,0l0.3,0l-3.9,6.8c-1.9,3.3-0.8,7.6,2.6,9.6c1.1,0.6,2.3,0.9,3.5,0.9
		c2.4,0,4.8-1.3,6.1-3.5l8.8-15.2l64.5-5.4C183.5,282.7,184.2,288.7,184.2,294.9z M126.3,267.5l23.5-40.6
		c12.5,9.2,22.3,21.7,28.3,36.3L126.3,267.5z M99.7,379.5c-46.6,0-84.6-37.9-84.6-84.6c0-46.6,37.9-84.5,84.6-84.5
		c13.7,0,26.7,3.3,38.1,9.1l-28.5,49.4l-10.1,0.8c-13.7,0.3-24.7,11.4-24.7,25.2c0,13.8,11.1,25,24.9,25.2l78.6,6.6
		C165.4,357.7,135,379.5,99.7,379.5z M240.7,294.9c0,11.7-9.4,21.2-21.1,21.3l-23.4-2c1.2-6.2,1.9-12.7,1.9-19.3
		c0-6.6-0.7-13-1.9-19.2l7-0.6l7.4,22.1c0.8,2.5,3,4.3,5.5,4.7c0.4,0.1,0.7,0.1,1.1,0.1c2.2,0,4.3-1,5.6-2.8l13.1-17.5
		C239,285.3,240.7,289.9,240.7,294.9z M400.3,379.5c-46.6,0-84.5-37.9-84.5-84.6c0-26.6,12.3-50.3,31.5-65.8l39.4,55.5
		c-2.2,2.9-3.5,6.4-3.5,10.2c0,9.4,7.7,17.1,17.1,17.1c9.4,0,17.1-7.7,17.1-17.1c0-9.4-7.7-17.1-17.1-17.1c-0.4,0-0.8,0-1.2,0.1
		l-40.2-56.7c12.3-6.9,26.4-10.9,41.4-10.9c46.6,0,84.6,37.9,84.6,84.5C484.9,341.6,447,379.5,400.3,379.5z"/>
</g>
</svg>
