<?xml version="1.0" encoding="utf-8"?>
<!-- Generator: Adobe Illustrator 17.1.0, SVG Export Plug-In . SVG Version: 6.00 Build 0)  -->
<!DOCTYPE svg PUBLIC "-//W3C//DTD SVG 1.1//EN" "http://www.w3.org/Graphics/SVG/1.1/DTD/svg11.dtd">
<svg version="1.1" id="Layer_1" xmlns="http://www.w3.org/2000/svg" xmlns:xlink="http://www.w3.org/1999/xlink" x="0px" y="0px"
	 viewBox="0 0 64 64" enable-background="new 0 0 64 64" xml:space="preserve">
<g>
	<path fill="#231F20" d="M27.8,38.7c-0.1,0-0.1,0-0.2,0c-0.4-0.1-0.7-0.3-0.8-0.7l-6.8-20.3c-0.2-0.5,0.1-1.1,0.6-1.3
		c0.5-0.2,1.1,0.1,1.3,0.6l6.2,18.5L39.1,21c0.3-0.4,1-0.5,1.4-0.2s0.5,1,0.2,1.4L28.6,38.3C28.4,38.6,28.1,38.7,27.8,38.7z"/>
	<path fill="#231F20" d="M51.5,38.7c-0.3,0-0.6-0.1-0.8-0.4L37.4,19.6c-0.3-0.4-0.2-0.9,0-1.2l2.5-3.2c0.3-0.4,1-0.5,1.4-0.2
		c0.4,0.3,0.5,1,0.2,1.4L39.5,19l12.9,18.1c0.3,0.5,0.2,1.1-0.2,1.4C51.9,38.7,51.7,38.7,51.5,38.7z"/>
	<path fill="#231F20" d="M13.2,38.6c-0.2,0-0.3,0-0.5-0.1c-0.5-0.3-0.6-0.9-0.4-1.4l9.3-16c0.2-0.3,0.5-0.5,0.9-0.5h17.4
		c0.6,0,1,0.4,1,1s-0.4,1-1,1H23l-9,15.5C13.9,38.4,13.5,38.6,13.2,38.6z"/>
	<path fill="#231F20" d="M28.1,42.4c-0.6,0-1-0.4-1-1s0.4-1,1-1c1.4,0,2.6-1.2,2.6-2.6c0-1.4-1.2-2.6-2.6-2.6c-0.6,0-1-0.4-1-1
		s0.4-1,1-1c2.5,0,4.6,2.1,4.6,4.6C32.7,40.3,30.6,42.4,28.1,42.4z"/>
	<path fill="#231F20" d="M51.2,40c-1.3,0-2.3-1-2.3-2.3c0-1.3,1-2.3,2.3-2.3c1.3,0,2.3,1,2.3,2.3C53.5,39,52.5,40,51.2,40z
		 M51.2,37.5c-0.2,0-0.3,0.1-0.3,0.3c0,0.2,0.1,0.3,0.3,0.3c0.2,0,0.3-0.1,0.3-0.3C51.5,37.6,51.4,37.5,51.2,37.5z"/>
	<path fill="#231F20" d="M40.6,18.1c-1.3,0-2.3-1-2.3-2.3c0-1.3,1-2.3,2.3-2.3c1.3,0,2.3,1,2.3,2.3C42.8,17.1,41.8,18.1,40.6,18.1z
		 M40.6,15.6c-0.2,0-0.3,0.1-0.3,0.3c0,0.2,0.1,0.3,0.3,0.3c0.2,0,0.3-0.1,0.3-0.3C40.8,15.7,40.7,15.6,40.6,15.6z"/>
	<path fill="#231F20" d="M12.8,50.4c-7,0-12.7-5.7-12.7-12.7c0-7,5.7-12.7,12.7-12.7c7,0,12.7,5.7,12.7,12.7
		C25.5,44.7,19.8,50.4,12.8,50.4z M12.8,27C6.9,27,2.1,31.8,2.1,37.7c0,5.9,4.8,10.7,10.7,10.7c5.9,0,10.7-4.8,10.7-10.7
		C23.5,31.8,18.7,27,12.8,27z"/>
	<path fill="#231F20" d="M51.2,50.4c-7,0-12.7-5.7-12.7-12.7c0-7,5.7-12.7,12.7-12.7c7,0,12.7,5.7,12.7,12.7
		C63.9,44.7,58.2,50.4,51.2,50.4z M51.2,27c-5.9,0-10.7,4.8-10.7,10.7c0,5.9,4.8,10.7,10.7,10.7c5.9,0,10.7-4.8,10.7-10.7
		C61.9,31.8,57.1,27,51.2,27z"/>
	<path fill="#231F20" d="M12.8,36.4c-0.5,0-1-0.4-1-0.9c0-0.6,0.4-1,0.9-1.1l14.7-1.2c0.5-0.1,1,0.4,1.1,0.9c0,0.6-0.4,1-0.9,1.1
		L12.8,36.4C12.8,36.4,12.8,36.4,12.8,36.4z"/>
	<path fill="#231F20" d="M28.1,42.4C28.1,42.4,28,42.4,28.1,42.4l-15.4-1.3c0,0,0,0,0,0c-1.7,0-3.2-1.5-3.2-3.3
		c0-1.8,1.5-3.3,3.3-3.3c0.6,0,1,0.4,1,1s-0.4,1-1,1c-0.7,0-1.3,0.6-1.3,1.3c0,0.7,0.6,1.3,1.3,1.3l15.4,1.3c0.6,0,1,0.5,0.9,1.1
		C29,42,28.6,42.4,28.1,42.4z"/>
	<path fill="#231F20" d="M18.5,18.9c-0.6,0-1-0.4-1-1s0.4-1,1-1c0.9,0,1.6-0.2,2.5-0.5c1.1-0.3,2.4-0.8,4.3-0.9c0.6,0,1,0.4,1,0.9
		c0,0.6-0.4,1-0.9,1c-1.7,0.1-2.8,0.4-3.8,0.8C20.6,18.6,19.7,18.9,18.5,18.9z"/>
	<path fill="#231F20" d="M34.4,38.6h-2.2c-0.6,0-1-0.4-1-1s0.4-1,1-1h2.2c0.6,0,1,0.4,1,1S34.9,38.6,34.4,38.6z"/>
</g>
</svg>
