<?xml version="1.0" encoding="utf-8"?>
<!-- Generator: Adobe Illustrator 17.1.0, SVG Export Plug-In . SVG Version: 6.00 Build 0)  -->
<!DOCTYPE svg PUBLIC "-//W3C//DTD SVG 1.1//EN" "http://www.w3.org/Graphics/SVG/1.1/DTD/svg11.dtd">
<svg version="1.1" id="Layer_1" xmlns="http://www.w3.org/2000/svg" xmlns:xlink="http://www.w3.org/1999/xlink" x="0px" y="0px"
	 viewBox="0 0 500 500" enable-background="new 0 0 500 500" xml:space="preserve">
<g>
	<path d="M140.5,446h218.9c7.7,0,13.5-6.6,13.5-14.3V221.4c1-1.2,1-2.5,1-3.8v-5.7c0-2.7-0.7-5.1-2-7.2c0-0.4,0-0.7,0-1.1
		c0-4.1-1.7-7.9-4.5-10.6c-0.3-1.6-0.8-3-1.5-4.4c0-0.4,0.2-0.9,0.2-1.3c0-3.6-1.3-6.9-3.3-9.4v-1.8c0-2.3-0.7-4.4-1.7-6.3
		c0-4.8-2.5-9-6.1-11.7l-4.3-28.2c0.2-1.1,0.3-2.2,0.3-3.3c0-2.2-0.5-4.4-1.3-6.4c0-0.1,0-0.2,0-0.3c0-2-0.4-4.1-1.1-5.9
		c-1-6.8-6.8-12.1-13.9-12.1h-1.2c-7,0-12.8,5.2-13.8,11.9c-0.8,1.8-1.2,3.9-1.2,6c0,0.1,0,0.2,0,0.3c-0.8,2-1.3,4.1-1.3,6.4
		c0,1.1,0.1,2.2,0.3,3.3l-4.2,28.3c-3.6,2.6-6.1,6.9-6.1,11.6c-0.9,1.9-1.6,4-1.6,6.3v1.8c-2,2.6-3.3,5.8-3.3,9.4
		c0,0.4,0.1,0.9,0.1,1.3c-0.7,1.4-1.2,2.8-1.5,4.4c-2.8,2.7-4.5,6.4-4.5,10.6c0,0.4,0.2,0.7,0.2,1.1c-0.5,0.9-1.1,1.8-1.1,2.8v-6.1
		c0-3-1.1-5.8-2.8-8.1l-0.1-0.1c0.1-0.7,0.1-1.4,0.1-2.1c0-4.6-2.1-8.7-5.4-11.5c-0.2-2.3-1-4.4-2.1-6.3l0-0.2
		c0.1-0.7,0.4-1.5,0.4-2.2c0-4-2-7.7-4-10.4V157c0-2.5-0.9-4.9-2.1-7c0-0.2-0.1-0.4-0.1-0.7c0-5.3-2.9-10-7.2-12.6l-5.5-36.9
		c0.4-1.4,0.5-2.9,0.5-4.3c0-1.9-0.3-3.8-0.9-5.5c0.6-1,1-2,1.3-3.1c0,0,0-0.1,0-0.1c1-3.4,0.5-6.5-0.1-8.5c0-0.1-0.1-0.2-0.1-0.3
		l-1.6-5.3c-0.2-0.7-0.5-1.4-0.8-2.1l-0.3-0.5c-0.4-0.9-1-1.7-1.6-2.5c-0.8-1.9-2.3-4.6-5-6.6c0,0,0,0,0,0c-1.3-1-2.8-1.7-4.4-2.2
		c-2.6-2.8-6.3-4.5-10.3-4.5c-0.1,0-0.3,0-0.4,0c-4.9,0.2-9.3,2.8-11.7,7l-0.8,1.5c-2.2,3.8-2.5,8.4-0.8,12.4
		c0.3,0.7,0.7,1.4,1.1,2.1c0.1,0.7,0.3,1.5,0.6,2.3c0.3,1,0.2,1.9,1.2,2.7v2.6c0,1.5,0.2,2.9,0.6,4.2c-0.8,2-1.2,4.2-1.2,6.4
		c0,1.5,0.2,2.9,0.5,4.3l-5.5,36.9c-4.3,2.6-7.1,7.3-7.1,12.6c0,0.2-0.2,0.5-0.2,0.7c-1.2,2-2.1,4.4-2.1,6.9v3.5
		c-2,2.7-4,6.4-4,10.4c0,0.7,0.2,1.5,0.3,2.2l0,0.2c-1.2,1.8-1.9,4-2.1,6.3c-3.3,2.7-5.3,6.9-5.3,11.5c0,0.7,0.1,1.4,0.2,2.1
		l-0.2,0.1c-1.6,2.3-2.8,5.1-2.8,8.1v6.1c0-1-0.6-1.9-1.1-2.8c0-0.3,0.1-0.7,0.1-1c0-4.1-1.7-7.9-4.4-10.6c-0.3-1.6-0.8-3-1.5-4.4
		c0-0.4,0.2-0.9,0.2-1.3c0-3.6-1.3-6.9-3.3-9.4v-1.8c0-2.3-0.7-4.4-1.6-6.3c0-4.8-2.4-9-6-11.7l-4.3-28.2c0.2-1.1,0.3-2.2,0.3-3.3
		c0-2.2-0.5-4.4-1.3-6.4c0-0.1,0-0.2,0-0.3c0-2-0.4-4.1-1.1-5.9c-1-6.8-6.8-12-13.9-12H165c-7,0-12.8,5.2-13.8,12
		c-0.8,1.8-1.2,3.9-1.2,5.9c0,0.1,0,0.2,0,0.3c-0.8,2-1.3,4.1-1.3,6.4c0,1.1,0.1,2.2,0.3,3.3l-4.2,28.3c-3.6,2.6-6.1,6.9-6.1,11.6
		c-0.9,1.9-1.7,4-1.7,6.3v1.8c-2,2.6-3.2,5.8-3.2,9.4c0,0.4,0.1,0.9,0.1,1.3c-0.7,1.3-1.2,2.8-1.5,4.3c-2.8,2.7-4.5,6.5-4.5,10.6
		c0,0.4,0,0.7,0.1,1.1c-1.3,2.1-2,4.6-2,7.3v5.7c0,1.3,0,2.6,1,3.8v210.3C127,439.4,132.8,446,140.5,446z M295,218.7
		c0,0.9,0,1.8,0,2.7v27.1c0,0,0-0.1,0-0.1V218.7z M205,221.4c0-0.8,0-1.6,0-2.5v29.5c0,0,0,0,0,0.1V221.4z M140,212h1l1.5-7.7
		c-0.3-0.1-0.5-0.4-0.5-0.8c0-0.4,0.4-0.8,0.8-0.8c0.5,0,0.9,0.4,0.9,0.8c0,0.3-0.2,0.7-0.5,0.8l1.5,7.6h1.3v3h1v-15h-1v-5h1.1
		l1.3-7.2c-0.3-0.1-0.5-0.3-0.5-0.7c0-0.4,0.4-0.7,0.8-0.7c0.4,0,0.8,0.4,0.8,0.8c0,0.3-0.2,0.5-0.5,0.6l1.3,7.2h0.6v3h1v-18h-1v-4
		h1.1l1.1-5.6c-0.2-0.1-0.4-0.3-0.4-0.5c0-0.3,0.2-0.6,0.6-0.6c0.3,0,0.6,0.3,0.6,0.6c0,0.2-0.1,0.4-0.4,0.5l1.1,5.6h0.2v3h1v-3.1
		l7.3-46.9h0.8c-0.8-1-1.4-1.4-1.4-2.4c0-1.3,1.3-2.5,2.3-2.7v-2.6c-1-0.2-1-0.7-1-1.4c0-0.6,0-1.2,1-1.4V116h1v2.5
		c1,0.2,1,0.8,1,1.4c0,0.6,0,1.2-1,1.4v2.6c1,0.3,2.3,1.4,2.3,2.7c0,1-0.5,1.4-1.3,2.4h0.8l7.2,46.9v3.1h1v-3h0.3l1.1-5.6
		c-0.2-0.1-0.4-0.3-0.4-0.5c0-0.3,0.3-0.6,0.6-0.6c0.3,0,0.6,0.3,0.6,0.6c0,0.2-0.2,0.4-0.4,0.5l1.1,5.6h1v4h-1v18h1v-3h0.8l1.3-7.2
		c-0.3-0.1-0.5-0.3-0.5-0.7c0-0.4,0.4-0.7,0.8-0.7c0.4,0,0.8,0.4,0.8,0.8c0,0.3-0.2,0.5-0.5,0.6l1.3,7.2h1v5h-1v15h1v-3h1.4l1.5-7.7
		c-0.3-0.1-0.5-0.4-0.5-0.8c0-0.4,0.4-0.8,0.8-0.8c0.5,0,0.8,0.4,0.8,0.8c0,0.3-0.2,0.7-0.5,0.8l1.5,7.6h0.9v6l0,0v52h6v-5h6v3h4v-6
		h6v4h6v-58h-1v-7h1.6l1.9-9.3c-0.4-0.1-0.7-0.4-0.7-0.8c0-0.5,0.5-0.9,1-0.9c0.6,0,1.1,0.5,1.1,1c0,0.4-0.3,0.6-0.7,0.8l1.9,9.3
		h0.8v4h2v-18h-1v-6h1.2l1.6-9.2c-0.4-0.1-0.6-0.5-0.6-0.9c0-0.5,0.5-1,1-1c0.6,0,1,0.4,1,0.9c0,0.4-0.3,0.9-0.6,1l1.6,9.2h0.8v3h1
		v-22h-1v-5h1.3l1.4-7c-0.3-0.1-0.5-0.4-0.5-0.7c0-0.4,0.3-0.7,0.7-0.7s0.7,0.3,0.7,0.7c0,0.3-0.2,0.6-0.5,0.7l1.4,7h1.3v4h1v-4.2
		l8.3-57.8h0.9c-1.1-1-1.9-2-1.9-3.3c0-1.7,1.7-3.3,2.7-3.7v-2h-0.9l-0.4-5l-0.7-0.1v-7.8l-1.7-1.6c0,0-0.2-0.1-0.2-0.3
		c0-0.1,0-0.4,0-0.4l0.1-1.1l0.3-2.6l-1.2-1l-1.3-0.3l0.8-1.5l0.9,1.3l3.6,3.3l0.1-0.4c0,0,0.2-0.3,0.3-0.4c0.2-0.1,0.4-0.2,0.6-0.2
		c0,0,0.1,0,0.1,0c0.3,0,0.6,0,0.8,0.2c0.2,0.1,0.4,0.6,0.4,0.6s0.2,0.5,0.2,0.8C251,74.4,251,76,251,76h1.3l0.3,0.3l0.3,0.6
		l1.6,5.3c0,0,0.2,0.5,0.1,0.8c-0.1,0.2-0.3,0.6-0.3,0.6l-2-4.3l0.2,5.6l-0.5,0.4v4l-1,0.7V92c1,0.4,2.7,2,2.7,3.7
		c0,1.3-0.8,2.3-1.9,3.3h0.9l8.3,57.8v4.2h1v-4h1.3l1.4-7c-0.3-0.1-0.5-0.4-0.5-0.7c0-0.4,0.3-0.7,0.7-0.7s0.7,0.3,0.7,0.7
		c0,0.3-0.2,0.6-0.5,0.7l1.4,7h1.3v5h-1v22h1v-3h0.8l1.6-9.2c-0.4-0.1-0.6-0.6-0.6-0.9c0-0.5,0.5-1,1-1c0.6,0,1,0.4,1,0.9
		c0,0.4-0.2,0.9-0.6,1l1.6,9.2h1.2v6h-1v18h2v-4h0.8l1.9-9.3c-0.4-0.1-0.6-0.4-0.6-0.8c0-0.5,0.5-0.9,1-0.9c0.6,0,1,0.5,1,1
		c0,0.4-0.3,0.6-0.6,0.8l1.9,9.3h1.6v7h-1v58h6v-4h6v6h4v-3h6v5h6v-52l0,0v-6h0.9l1.5-7.7c-0.3-0.1-0.5-0.4-0.5-0.8
		c0-0.4,0.4-0.8,0.8-0.8c0.5,0,0.9,0.4,0.9,0.8c0,0.3-0.2,0.7-0.5,0.8l1.5,7.6h1.4v3h1v-15h-1v-5h1.1l1.3-7.2
		c-0.3-0.1-0.5-0.3-0.5-0.7c0-0.4,0.4-0.7,0.8-0.7c0.5,0,0.8,0.4,0.8,0.8c0,0.3-0.2,0.5-0.5,0.6l1.3,7.2h0.7v3h1v-18h-1v-4h1
		l1.1-5.6c-0.2-0.1-0.4-0.3-0.4-0.5c0-0.3,0.2-0.6,0.6-0.6c0.3,0,0.6,0.3,0.6,0.6c0,0.2-0.1,0.4-0.4,0.5l1.1,5.6h0.3v3h1v-3.1
		l7.2-46.9h0.8c-0.8-1-1.3-1.4-1.3-2.4c0-1.3,1.3-2.5,2.3-2.7v-2.6c-1-0.2-1-0.7-1-1.4c0-0.6,0-1.2,1-1.4V116h1v2.5
		c1,0.2,1,0.8,1,1.4s0,1.2-1,1.4v2.6c1,0.3,2.3,1.4,2.3,2.7c0,1-0.5,1.4-1.4,2.4h0.8l7.3,46.9v3.1h1v-3h0.2l1.1-5.6
		c-0.2-0.1-0.4-0.3-0.4-0.5c0-0.3,0.3-0.6,0.6-0.6c0.3,0,0.6,0.3,0.6,0.6c0,0.2-0.2,0.4-0.4,0.5l1.1,5.6h1.1v4h-1v18h1v-3h0.7
		l1.3-7.2c-0.3-0.1-0.5-0.3-0.5-0.7c0-0.4,0.4-0.7,0.8-0.7c0.5,0,0.8,0.4,0.8,0.8c0,0.3-0.2,0.5-0.5,0.6l1.3,7.2h1.1v5h-1v15h1v-3
		h1.3l1.5-7.7c-0.3-0.1-0.5-0.4-0.5-0.8c0-0.4,0.4-0.8,0.8-0.8c0.5,0,0.8,0.4,0.8,0.8c0,0.3-0.2,0.7-0.5,0.8l1.5,7.6h1v6h-1v214H141
		V218h-1V212z"/>
</g>
</svg>
