<?xml version="1.0" encoding="utf-8"?>
<!-- Generator: Adobe Illustrator 17.1.0, SVG Export Plug-In . SVG Version: 6.00 Build 0)  -->
<!DOCTYPE svg PUBLIC "-//W3C//DTD SVG 1.1//EN" "http://www.w3.org/Graphics/SVG/1.1/DTD/svg11.dtd">
<svg version="1.1" id="Layer_1" xmlns="http://www.w3.org/2000/svg" xmlns:xlink="http://www.w3.org/1999/xlink" x="0px" y="0px"
	 viewBox="0 0 64 64" enable-background="new 0 0 64 64" xml:space="preserve">
<g>
	<path d="M10,26.9h2.5V32c0,1.4-0.2,2.4-0.2,2.4h0.1c1.5-4.4,6.7-8.3,11.3-8.3c5.9,0,8.6,2.8,9.3,8H33c1.6-4.1,6.1-8,11.2-8
		c7.6,0,9.8,4.5,9.8,11.5v18.6h-2.5V38.5c0-5.5-1.1-10-7.3-10c-4.9,0-9,4.3-10.3,8.9c-0.4,1.4-0.6,2.8-0.6,4.5v14.3h-2.5V38.5
		c0-5-0.7-10-7.2-10c-5.2,0-9.3,4.6-10.7,9.5c-0.4,1.2-0.5,2.6-0.5,4v14.3H10V26.9z"/>
	<path d="M41.3,7.8c-8.2,0.3-14.4,4.3-16.5,5.9c-2,1.6-2,3.3-2,3.3c0,1.1,0.4,2.1,1.2,3.2c0.4,0.6,1,1.1,1.7,1.6
		c5.7-7,12.9-10.1,13-10.1c0.2-0.1,0.5,0,0.6,0.3c0.1,0.3,0,0.5-0.3,0.6c-0.1,0-7,3-12.6,9.7c0.4,0.2,0.7,0.4,1.1,0.5
		c1.7,0.7,3.6,1.1,5.9,1.1c2.4,0,4.5-0.3,6.2-1c1.7-0.7,3-1.6,3.8-2.9c0.3-0.5,0.6-1,0.8-1.6l0,0.2c1.5-4.1,2.9-7.8,6.2-8.1
		c1.7-0.1,3.2,0.2,3.2,0.2C53.4,10.8,49.6,7.4,41.3,7.8"/>
</g>
</svg>
