<?xml version="1.0" encoding="utf-8"?>
<!-- Generator: Adobe Illustrator 17.1.0, SVG Export Plug-In . SVG Version: 6.00 Build 0)  -->
<!DOCTYPE svg PUBLIC "-//W3C//DTD SVG 1.1//EN" "http://www.w3.org/Graphics/SVG/1.1/DTD/svg11.dtd">
<svg version="1.1" id="Layer_1" xmlns="http://www.w3.org/2000/svg" xmlns:xlink="http://www.w3.org/1999/xlink" x="0px" y="0px"
	 viewBox="0 0 500 500" enable-background="new 0 0 500 500" xml:space="preserve">
<g>
	<path d="M88.2,357h165.5c0.2,0,0.5,0,0.7,0c0.2,0,0.5,0,0.7,0h49.6c3,0,5.7-1.7,6.6-4.5l26.6-77.7l18.4,77c0.8,3.2,3.6,5.2,6.8,5.2
		h52.8c2.3,0,4.4-0.9,5.7-2.8s1.6-4.2,0.9-6.3l-72.4-200.7c-1.1-2.9-3.9-4.5-6.8-4.4c-0.1,0-0.1,0.2-0.2,0.2H170.3
		c-2.8,0-5.4,1.5-6.5,4.2L81.7,347.8c-0.9,2.2-0.6,4.4,0.7,6.3C83.7,356.1,85.8,357,88.2,357z M406.1,343h-37.3l-22.7-95
		c-0.7-3-3.4-5.1-6.5-5.3c-3.1-0.1-5.9,1.6-7,4.6L299.8,343h-35.3l78.3-175.6L406.1,343z M175,157h157.4l-83.2,186H98.6L175,157z"/>
	<path d="M446.9,316.7c-3.8-0.9-7.5,1.4-8.4,5.2l-6.3,26.8c-0.9,3.8,1.4,7.5,5.2,8.4c0.5,0.1,1.1,0.2,1.6,0.2c3.2,0,6-2.2,6.8-5.4
		l6.3-26.8C453,321.4,450.7,317.6,446.9,316.7z"/>
	<path d="M68.9,348.6l-7.5-29.1c-1-3.7-4.8-6-8.5-5c-3.7,1-6,4.8-5,8.5l7.5,29.1c0.8,3.2,3.7,5.3,6.8,5.3c0.6,0,1.2-0.1,1.7-0.2
		C67.6,356.2,69.9,352.4,68.9,348.6z"/>
</g>
</svg>
