<?xml version="1.0" encoding="utf-8"?>
<!-- Generator: Adobe Illustrator 17.1.0, SVG Export Plug-In . SVG Version: 6.00 Build 0)  -->
<!DOCTYPE svg PUBLIC "-//W3C//DTD SVG 1.1//EN" "http://www.w3.org/Graphics/SVG/1.1/DTD/svg11.dtd">
<svg version="1.1" id="Layer_1" xmlns="http://www.w3.org/2000/svg" xmlns:xlink="http://www.w3.org/1999/xlink" x="0px" y="0px"
	 viewBox="0 0 500 500" enable-background="new 0 0 500 500" xml:space="preserve">
<g>
	<path d="M97,327.4c0-11,1.1-21.6,3.9-31.2c10.6-38.1,43-73.9,83.8-73.9c50.5,0,56.3,39,56.3,78.5V439h19V327.4
		c0-13.3,1.3-24.8,4.5-35.3c10.1-35.8,42.8-69.8,80.9-69.8c48.6,0,57.5,35.3,57.5,78.5V439h19V293.9c0-54.6-17.5-89.4-76.7-89.4
		c-39.5,0-74.4,30.5-87.2,62.5h-0.9c-5-41-26.6-62.6-72.5-62.6c-35.8,0-76.6,30.6-88.1,64.6h-0.9c0,0,1.4-8.1,1.4-18.7V210H78v229
		h19V327.4z"/>
	<path d="M200.2,170.5c44.6-54.9,100.9-78.7,101.7-79.1c1.9-0.8,4.2,0.1,5,2.1c0.8,2-0.1,4.2-2.1,5c-0.8,0.3-54.9,23.3-98.1,76.1
		c2.7,1.5,5.6,2.9,8.8,4.3c12.9,5.5,28.4,8.3,46.4,8.3c18.9,0,35-2.5,48.2-7.6c13.2-5.1,23.2-12.6,29.9-22.5
		c2.6-3.8,4.6-8.1,6.2-12.5l-0.2,1.2c12-31.7,22.5-61.2,48.3-63c13.2-0.9,24.7,1.6,24.7,1.6c-1.9-0.4-31.2-26.2-96.6-23.6
		c-64,2.5-112.8,33.6-128.7,46.4c-15.8,12.8-16,26-16,26c0,8.4,3.1,16.7,9.2,25C190.3,162.7,194.8,166.8,200.2,170.5z"/>
</g>
</svg>
