<?xml version="1.0" encoding="utf-8"?>
<!-- Generator: Adobe Illustrator 17.1.0, SVG Export Plug-In . SVG Version: 6.00 Build 0)  -->
<!DOCTYPE svg PUBLIC "-//W3C//DTD SVG 1.1//EN" "http://www.w3.org/Graphics/SVG/1.1/DTD/svg11.dtd">
<svg version="1.1" id="Layer_1" xmlns="http://www.w3.org/2000/svg" xmlns:xlink="http://www.w3.org/1999/xlink" x="0px" y="0px"
	 viewBox="0 0 500 500" enable-background="new 0 0 500 500" xml:space="preserve">
<g>
	<path d="M401,299.6c0-34-27.8-61.6-61.8-61.6h-38.5c27.6-17,46.1-47.7,46.1-82.5c0-53.4-43.4-96.8-96.8-96.8s-96.8,43.5-96.8,96.8
		c0,34.8,18.5,65.5,46.1,82.5h-38.5c-34,0-61.8,27.6-61.8,61.6V441h302V299.6z M167.2,155.5c0-45.7,37.1-82.8,82.8-82.8
		s82.8,37.2,82.8,82.8c0,43-33,78.5-75,82.5h-15.6C200.2,234,167.2,198.5,167.2,155.5z M387,427H113V299.6
		c0-26.3,21.5-47.6,47.8-47.6h80.7c2.8,0,5.6,0.4,8.5,0.4s5.7-0.4,8.5-0.4h80.7c26.3,0,47.8,21.3,47.8,47.6V427z"/>
</g>
</svg>
