<?xml version="1.0" encoding="utf-8"?>
<!-- Generator: Adobe Illustrator 17.1.0, SVG Export Plug-In . SVG Version: 6.00 Build 0)  -->
<!DOCTYPE svg PUBLIC "-//W3C//DTD SVG 1.1//EN" "http://www.w3.org/Graphics/SVG/1.1/DTD/svg11.dtd">
<svg version="1.1" id="Layer_1" xmlns="http://www.w3.org/2000/svg" xmlns:xlink="http://www.w3.org/1999/xlink" x="0px" y="0px"
	 viewBox="0 0 500 500" enable-background="new 0 0 500 500" xml:space="preserve">
<g>
	<path d="M285.1,154.8c0-2.4,0.2-4.6,0.5-6.6c0.1-1.1,0.2-2.2,0.3-3.2c0.6-1.7,1.2-3.4,2.2-5.5c0.4-0.4,1.1-1,3.2-1.4l0.9-0.2
		l0.8-0.3c1.6-0.8,6.4-0.7,10.9-0.7H342V59h-57.6c-31.7,0-54.1,7.6-68.4,22.7l-0.3,0.3c-13.8,15.5-20.7,37.3-20.7,66.5V180h-38v77
		h38v184h90V257h50.2l8.6-77h-58.6L285.1,154.8z M322.6,243H271v184h-62V243h-38v-49h38v-45.6c0-25.5,5.7-44.3,17.1-57.2
		C237.6,79.1,256.8,73,284.4,73H328v50h-24.1c-6.6,0-11.9-0.2-16.3,1.7c-5.1,1.2-8.8,3.6-11.4,7.4l-0.2,0.3l-0.2,0.4
		c-1.8,3.6-2.7,6.3-3.5,8.7l-0.3,1.1v1.1c0,0.6-0.2,1.7-0.3,2.9c-0.2,2.2-0.6,5-0.6,8.2l0,39.2h57L322.6,243z"/>
</g>
</svg>
