<?xml version="1.0" encoding="utf-8"?>
<!-- Generator: Adobe Illustrator 17.1.0, SVG Export Plug-In . SVG Version: 6.00 Build 0)  -->
<!DOCTYPE svg PUBLIC "-//W3C//DTD SVG 1.1//EN" "http://www.w3.org/Graphics/SVG/1.1/DTD/svg11.dtd">
<svg version="1.1" id="Layer_1" xmlns="http://www.w3.org/2000/svg" xmlns:xlink="http://www.w3.org/1999/xlink" x="0px" y="0px"
	 viewBox="0 0 500 500" enable-background="new 0 0 500 500" xml:space="preserve">
<g>
	<path d="M282.1,295.3l-0.3-0.4c-3.6-4.4-8.4-10-13.2-14.8l-0.4-0.4c-1.4-1.2-2.9-2.5-4.4-3.8c-3.1-2.7-6.2-5.5-9.5-7.7l-0.8-0.6
		c-4-3.4-8.2-6.8-11.7-9.6c-3.4-3.4-6.1-6.1-7.9-9.2c-1.9-3.2-2.9-5.3-2.9-7.5c0-4.4,1.3-8.2,3.9-11.3l0.4-0.5
		c3.2-4.9,6.6-8.5,10.6-11.3l0.4-0.3l14.7-14.7c4.6-4.6,8.6-11,13.3-21.4l0.2-0.4c3.3-9.2,4.9-19,4.9-30.8c0-12.5-2.9-25.1-8.8-38.7
		l-0.1-0.1c-3.2-6.9-7.5-12.7-12.7-18.7H272l50.8-29H213.6h0h-8.3c-16.9,0-29.9,1.4-42.2,4.1c-20.6,4.7-38.4,15.9-53.1,33
		c-15,16.7-22.7,36.1-22.7,57.7c0,22.2,8.8,42.3,25.3,58.1l0.1,0.1c16.7,15.1,36.7,22.7,59.2,22.7c2.1,0,4.2-0.1,6.3-0.4
		c0,0.1,0,0.2-0.1,0.3c-0.4,0.9-0.6,1.8-0.8,2.5c-0.1,0.4-0.1,0.9-0.2,1l-0.5,1.3v6.7c0,8.1,2.7,16.8,8.6,26.5
		c-7.7,0.6-15.2,1.3-22.6,2.3c-10.9,1.6-22.6,4.7-34,7.7l-0.3,0.1c-12.7,4-24,9.6-33.6,16.8c-10.1,7.6-17.4,16-22.2,25.6
		c-6,12-9,22.6-9,32.2c0,10.6,2.4,19.9,7.5,29.4l0.1,0.2c5,8.3,10.7,14.8,18.1,20.6c8.1,6.3,17.1,10.4,24.8,13.7l0.4,0.2
		c10.3,3.4,18.7,5.6,27.3,7c8.4,1.5,17.9,2.4,26.8,2.4c40.7,0,71.7-9.6,94.8-29.5c21.4-19,32.3-41.2,32.3-65.8
		c0-8.1-1.4-16.4-4.1-24.5C289.7,308.1,286.5,301.4,282.1,295.3z M255.9,397.2c-20.7,17.9-49.1,26.5-86.9,26.5
		c-8.2,0-16.9-0.8-24.7-2.2c-8-1.3-15.8-3.3-25.4-6.5c-10-4.2-16.3-7.6-21.9-12c-6.1-4.8-10.9-10.2-15.1-17.2
		c-4.2-7.7-6-14.9-6-23.5c0-7.7,2.5-16.5,7.7-26.8c3.9-7.9,10.1-14.9,18.7-21.3c8.4-6.3,18.5-11.4,29.8-14.9
		c10.9-2.9,22.3-5.9,32.5-7.4c10.3-1.5,20.6-2.2,32.1-3l11-0.7l-6.5-8.9c-8.2-11-12.3-20.5-12.3-28.2V247c0-0.8,0.3-1.5,0.4-2
		c0.1-0.4,0-0.9,0.1-1l0.4-1.3v-0.8c0-0.2,0.3-0.5,0.4-0.8c0.2-0.6,0.6-1.4,0.9-2.2c0.5-1.2,0.8-2.3,1-3.1c0.1-0.4,0.2-0.9,0.3-1
		l4.4-8.8c14.9-0.6,25.7-5.8,32.2-15.4c6.3-8.7,9.8-21,10.1-35.7l0-2.5c0-9.9-1-19.3-3.2-28.6l-0.1-0.4c-2.8-9.2-6-19-11-28.9
		c-4.9-9.8-11.6-18.1-19.8-24.7c-8.7-7-18.4-10.4-29.5-10.4c-15,0-26.7,5.7-35.8,17.5c-8.4,10.9-12.6,24.1-12.6,39.2
		c0,8.1,1,15.2,3.2,22.6c1.8,8.8,4.4,16.6,7.9,23.7c3.5,8.7,8.7,16.1,12.8,21.6c5,6.7,10.9,11.8,18.5,16c6,3.4,12.2,5.3,19.2,5.9
		l-2.6,0.3c-1.2,0.2-2.4,0.3-3.5,0.5c-4.3,0.6-7.6,1-10.9,1c-19.7,0-36.5-6.4-51.1-19.6c-14.3-13.6-21.5-30.2-21.5-49.3
		c0-18.6,6.6-35.3,19.6-49.7l0.1-0.1c13-15.1,28.7-25.1,46.7-29.2c10.2-2.3,21-2.8,34.7-3.8h76.5l-8.2,5h-46.4l15.8,10.9
		c9.6,6.7,16.8,15,21.4,24.8c5.2,12,7.8,23.1,7.8,33.8c0,10.3-1.3,18.7-4.1,26.5c-4,8.8-7.3,14.2-10.8,17.7l-14,14
		c-4.9,3.6-9.1,8-13,13.9c-4.2,5.2-6.5,11.7-6.5,18.7c0,5.5,2.3,9.8,4.6,13.7c2.7,4.4,6.1,7.8,10,11.7l0.5,0.4
		c3.5,2.8,7.5,6.1,11.8,9.7l1,0.8l0.5,0.4c2.7,1.8,5.5,4.3,8.4,6.9c1.4,1.3,2.9,2.6,4.4,3.9c4.3,4.4,8.8,9.5,12.2,13.6
		c3.5,5,6.1,10.4,8.1,17l0.1,0.2c2.3,7,3.5,13.8,3.5,20.8C284.1,361.7,274.9,380.3,255.9,397.2z M175.7,209.6
		c-6.1-3.4-10.8-7.4-14.8-12.7c-3.7-4.9-8.3-11.6-11.3-19.1l-0.2-0.5c-3.2-6.3-5.5-13.3-7-21.2l-0.1-0.5c-1.9-6.3-2.8-12.5-2.8-19.5
		c0-12.5,3.4-23.2,10.1-31.9c6.7-8.7,15.1-12.8,26.3-12.8c8.4,0,15.4,2.5,22,7.8c6.8,5.5,12.4,12.4,16.5,20.7
		c4.1,8.1,6.7,16.3,10,26.9c1.8,7.8,2.6,15.6,2.6,23.9v1.7c0,13.3-2.6,24.1-7.8,31.3l-0.1,0.2c-4.6,6.9-12.8,10.2-25.2,10.2
		C187.1,214.1,181.3,212.7,175.7,209.6z"/>
	<path d="M381,64h-40v56h-55v39h55v55h40v-55h55v-39h-55V64z M424,132v15h-55v55h-16v-55h-55v-15h55V76h16v56H424z"/>
	<path d="M264.1,348.8c-0.3-1.1-0.4-2.1-0.6-3.2c-0.2-1.5-0.5-3.1-1-4.8c-0.9-2.8-2.7-6.3-4.5-9l-0.2-0.3c-0.6-0.8-1.1-1.4-1.6-2
		c-1.2-1.6-1.8-2.3-2.1-3l-0.4-1.4l-6.8-6.8c-1.9-2.4-3.7-4-5.1-5.2c-0.5-0.4-0.9-0.8-1.3-1.1l-0.6-0.7l-0.9-0.4
		c-0.4-0.2-1.5-1.2-2.3-1.8c-1.1-0.9-2.2-1.9-3.6-2.9c-2.6-1.9-4.7-3.4-6.4-4.4c-1.2-1.4-2.8-2.4-4.6-3.6c-0.9-0.6-1.8-1.2-2.7-1.9
		l-0.5-0.3c-4.7-2.8-5.7-3.9-5.7-3.9l-1.8-2h-2.5c-0.6,0-1.7,0.1-2.9,0c-2.1-0.2-4.7-0.4-7.7-0.4c-8.5,0-16.2,0.8-23.7,1.6l-1,0.2
		c-1.1,0.2-2.2,0.5-3.4,0.7c-6.2,1.3-13.2,2.8-19.9,5.5c-9.2,2.5-16.4,5.9-22.7,10.6c-7.2,4.5-12.9,10.6-17,17.9
		c-4.6,8.3-6.8,16.9-6.8,26.4c0,9.9,2.8,19.4,8.4,28.8l0.1,0.1c5.9,9.2,13.5,16.1,22.8,20.3c7.6,4.1,16.7,8.6,27.2,10.3
		c10.7,2.7,20,3.9,29.2,3.9c10,0,18.3-1,25.7-3.2c7.3-1.5,14.3-4.2,22.6-8.9c7.3-4.1,13.5-9.9,18.7-17.8l0.2-0.4
		c3-5.5,5.1-11.1,6.1-17l0.9,0.4v-9.7c0-3.7-0.9-7.1-1.7-10.4L264.1,348.8z M254,359.3c0,7.4-1.7,13.9-5.3,20.3
		c-4.2,6.2-8.8,10.6-14.5,13.8c-7.4,4.1-13.4,6.5-19.5,7.7l-0.6,0.1c-6.2,1.9-13.6,2.8-22.5,2.8c-8.3,0-16.7-1.1-26.5-3.6l-0.5-0.1
		c-8.9-1.5-17-5.5-23.8-9.2l-0.4-0.2c-7.3-3.3-13.1-8.5-17.8-15.8c-4.5-7.6-6.7-14.8-6.7-22.6c0-7.5,1.7-14,5.3-20.5
		c3.1-5.6,7.5-10.2,13.1-13.7l0.4-0.3c5.2-3.9,11.3-6.7,19.2-8.9l0.6-0.2c5.9-2.3,12.5-3.8,18.3-5c1.1-0.2,2.1-0.4,3.1-0.7
		c7.5-0.7,14.6-1.4,22.5-1.4c2.3,0,4.5,0.2,6.4,0.4c0.7,0.1,1.3,0.1,2,0.2c1.2,0.8,2.9,2,5.7,3.6c1.1,0.8,2.1,1.5,3,2.1
		c0.7,0.5,1.6,1.1,2.1,1.5l0.6,1.3l1.8,0.9c0.7,0.3,2.3,1.3,5.9,4c1.1,0.9,2.2,1.7,3.1,2.5c1.4,1.1,2.5,2.1,3.7,2.8
		c0.4,0.4,0.8,0.7,1.2,1.1c1.2,1,2.4,2.1,3.6,3.7l0.3,0.3l5.5,5.5c0.9,2,2.1,3.6,3.4,5.2c0.4,0.5,0.8,1.1,1.3,1.7
		c1.2,1.8,2.4,4.3,3,6c0.2,0.8,0.4,1.7,0.6,2.8c0.2,1.2,0.4,2.6,0.8,4.3l0.1,0.1c0.6,2.4,1.4,4.7,1.4,6.7V359.3z"/>
</g>
</svg>
