<?xml version="1.0" encoding="utf-8"?>
<!-- Generator: Adobe Illustrator 17.1.0, SVG Export Plug-In . SVG Version: 6.00 Build 0)  -->
<!DOCTYPE svg PUBLIC "-//W3C//DTD SVG 1.1//EN" "http://www.w3.org/Graphics/SVG/1.1/DTD/svg11.dtd">
<svg version="1.1" id="Layer_1" xmlns="http://www.w3.org/2000/svg" xmlns:xlink="http://www.w3.org/1999/xlink" x="0px" y="0px"
	 viewBox="0 0 64 64" enable-background="new 0 0 64 64" xml:space="preserve">
<path fill="#231F20" d="M11.9,54.3c-0.8,0-1.5-0.2-2.3-0.8C8.7,52.8,8.2,52,8.1,51c-0.2-2.3,1.9-4.6,3.8-6.6c0.4-0.4,0.7-0.8,1-1.1
	c-1-3-1.2-9.6,0.7-13.9c1.7-3.8,9.1-16.6,31.9-19.3c1.9-0.2,8.3-0.9,9.5,0.7c1.6,2,0.6,8.6-1.2,14c-1.9,5.9-7.8,19.9-21.3,23.8
	c-7,2-11.4,0.8-13.2,0.1C17.5,51.1,14.7,54.3,11.9,54.3z M50.6,11.8c-3.3,0-8.7,0.6-14.7,2.5c-7,2.2-16.3,6.8-20.4,16
	C13.8,34,14,40.9,15,43c0.2,0.4,0.1,0.8-0.1,1.1c-0.4,0.5-0.9,1.1-1.5,1.7c-1.5,1.6-3.4,3.7-3.3,5.1c0,0.2,0.1,0.6,0.7,1
	c2,1.4,4.8-1.6,7.6-5c0.3-0.4,0.8-0.5,1.3-0.2c0.4,0.2,4.5,2.4,12.4,0.1c12.6-3.6,18.1-17,20-22.5c1.7-5.3,2.1-9.4,1.8-11.2
	c-3.1,2.9-13.3,12.6-20.5,18.8c-9.8,8.5-11.8,10.6-11.8,10.6c-0.4,0.4-1,0.4-1.4,0.1c-0.4-0.4-0.4-1-0.1-1.4
	c0.1-0.1,2-2.2,11.9-10.8c6.9-5.9,16.6-15.2,20.1-18.4C51.7,11.8,51.2,11.8,50.6,11.8z"/>
</svg>
