<?xml version="1.0" encoding="utf-8"?>
<!-- Generator: Adobe Illustrator 17.1.0, SVG Export Plug-In . SVG Version: 6.00 Build 0)  -->
<!DOCTYPE svg PUBLIC "-//W3C//DTD SVG 1.1//EN" "http://www.w3.org/Graphics/SVG/1.1/DTD/svg11.dtd">
<svg version="1.1" id="Layer_1" xmlns="http://www.w3.org/2000/svg" xmlns:xlink="http://www.w3.org/1999/xlink" x="0px" y="0px"
	 viewBox="0 0 64 64" enable-background="new 0 0 64 64" xml:space="preserve">
<g>
	<path fill="#231F20" d="M17.1,52.9h-1.9c-0.4,0-0.7-0.2-0.9-0.5L11.6,47c-0.1-0.2-0.1-0.5-0.1-0.8l3.1-8.9c0.2-0.5,0.8-0.8,1.3-0.6
		c0.5,0.2,0.8,0.8,0.6,1.3l-3,8.5l2.3,4.4h1.3c0.6,0,1,0.4,1,1S17.6,52.9,17.1,52.9z"/>
	<path fill="#231F20" d="M13.5,33H7.7c-0.6,0-1-0.4-1-1c0-3.2,4.4-5.4,8.4-5.4c0.6,0,1,0.4,1,1s-0.4,1-1,1c-2.6,0-5.2,1.1-6.1,2.4
		h4.5c0.6,0,1,0.4,1,1S14.1,33,13.5,33z"/>
	<path fill="#231F20" d="M41.8,39.9H31.6c-0.6,0-1-0.4-1-1s0.4-1,1-1h10.2c2.4,0,4.3-1.9,4.3-4.3v-0.5c0-0.6,0.4-1,1-1s1,0.4,1,1
		v0.5C48,37.1,45.2,39.9,41.8,39.9z"/>
	<path fill="#231F20" d="M15.6,38.6c-0.2,0-0.5-0.1-0.7-0.2c-1.4-1.2-2.2-2.9-2.2-4.7v-2.2c0-3.5,2.8-6.3,6.3-6.3h17.8
		c2.9,0.1,4.9-5.5,5.4-7.6l0.6-3.3c0.3-1.9,1.4-3.1,2.7-3.1c0.3,0,0.6,0.2,0.8,0.4l3.5,5.3l6.2,2.3c0.4,0.1,0.7,0.3,0.9,0.6
		c0.3,0.5,0.4,1.1,0.2,1.7c0,0.1,0,0.2-0.1,0.2l-0.5,0.9c-1,2.6-2,4-4.5,4c-0.7,0-2.2,0.1-3.1,0.1L48,33.4c-0.1,0.5-0.6,0.9-1.1,0.8
		C46.3,34.1,46,33.6,46,33l1.2-7.5c0.1-0.5,0.5-0.8,0.9-0.8c0.1,0,2.9-0.2,4-0.2c1.1,0,1.6-0.1,2.6-2.7c0,0,0-0.1,0.1-0.1l0.4-0.8
		l-6.4-2.4c-0.2-0.1-0.4-0.2-0.5-0.4l-3.2-4.8c-0.2,0.2-0.3,0.6-0.4,1.2l-0.6,3.4c-0.2,1-2.4,9.4-7.4,9.2l-17.7,0
		c-2.4,0-4.3,1.9-4.3,4.3v2.2c0,1.2,0.5,2.4,1.5,3.2c0.4,0.4,0.5,1,0.1,1.4C16.1,38.5,15.8,38.6,15.6,38.6z"/>
	<path fill="#231F20" d="M12.4,47.6c-0.3,0-0.7-0.2-0.8-0.5c-0.3-0.5-0.2-1.1,0.3-1.4l9.3-5.9c0.5-0.3,1.1-0.2,1.4,0.3
		c0.3,0.5,0.2,1.1-0.3,1.4L13,47.4C12.8,47.5,12.6,47.6,12.4,47.6z"/>
	<path fill="#231F20" d="M24.6,52.9h-2.3c-0.4,0-0.7-0.2-0.9-0.5L18.7,47c-0.1-0.2-0.1-0.5-0.1-0.8l2.1-5.9c0.2-0.5,0.8-0.8,1.3-0.6
		c0.5,0.2,0.8,0.8,0.6,1.3l-2,5.5l2.3,4.4h1.7c0.6,0,1,0.4,1,1S25.2,52.9,24.6,52.9z"/>
	<path fill="#231F20" d="M19.6,47.6c-0.3,0-0.7-0.2-0.8-0.5c-0.3-0.5-0.2-1.1,0.3-1.4l12-7.6c0.5-0.3,1.1-0.2,1.4,0.3
		c0.3,0.5,0.2,1.1-0.3,1.4l-12,7.6C20,47.5,19.8,47.6,19.6,47.6z"/>
	<path fill="#231F20" d="M38.4,52.9h-2c-0.5,0-0.9-0.4-1-0.8l-1.4-8.3c0-0.2,0-0.4,0.1-0.5l1.9-4.7c0.2-0.5,0.8-0.8,1.3-0.6
		c0.5,0.2,0.8,0.8,0.6,1.3l-1.8,4.4l1.2,7.1h1.2c0.6,0,1,0.4,1,1S39,52.9,38.4,52.9z"/>
	<path fill="#231F20" d="M44,52.9h-2c-0.5,0-0.9-0.4-1-0.8l-1.4-8.3c0-0.2,0-0.4,0.1-0.5l1.9-4.7c0.2-0.5,0.8-0.8,1.3-0.6
		c0.5,0.2,0.8,0.8,0.6,1.3l-1.8,4.4l1.2,7.1H44c0.6,0,1,0.4,1,1S44.6,52.9,44,52.9z"/>
</g>
</svg>
