<?xml version="1.0" encoding="utf-8"?>
<!-- Generator: Adobe Illustrator 17.1.0, SVG Export Plug-In . SVG Version: 6.00 Build 0)  -->
<!DOCTYPE svg PUBLIC "-//W3C//DTD SVG 1.1//EN" "http://www.w3.org/Graphics/SVG/1.1/DTD/svg11.dtd">
<svg version="1.1" id="Layer_1" xmlns="http://www.w3.org/2000/svg" xmlns:xlink="http://www.w3.org/1999/xlink" x="0px" y="0px"
	 viewBox="0 0 500 500" enable-background="new 0 0 500 500" xml:space="preserve">
<g>
	<path d="M446.6,126c-2.1-1.8-4.9-2.1-7.2-1.1c-6,2.3-11.5,4.2-16.8,5.9c7.1-8.4,12.4-18,15.9-28.9c0.9-2.8,0-5.8-2.3-7.6
		c-2.3-1.8-5.4-2.1-7.9-0.6c-14.4,8.3-28.6,13.8-44.6,17.2c-16.3-15.8-36.8-24.2-59.5-24.2c-24,0-44.6,8.4-61.3,25.1
		c-16.7,16.7-25.1,37-25.1,60.5c0,3.6,0.3,7.3,0.9,11.1c-27.7-2.6-54.4-10.4-79.5-23.3c-26.8-13.8-50.2-32.7-69.5-56.3
		c-1.5-1.8-3.7-2.7-6-2.5c-2.3,0.2-4.3,1.5-5.5,3.5c-7.4,13-11.2,27.6-11.2,43.6c0,15.2,3.5,29,10.3,41c2.4,4.5,5.2,8.7,8.3,12.5
		c-3.1-1.2-6.1-2.6-9.1-4.2c-2.2-1.2-4.9-1.1-7,0.2c-2.1,1.3-3.5,3.5-3.5,6v0.9c0,20.6,6.7,39.1,19.7,54.8c0,0.1,0.2,0.1,0.2,0.2
		c6,6.9,12.8,12.7,20.2,17.3c-0.7-0.1-1.4-0.2-2.1-0.3l-2.4-0.3c-2.4-0.3-4.8,0.6-6.3,2.4c-1.6,1.8-2.1,4.3-1.3,6.6
		c5.5,17.4,15.5,31.4,30.7,42.8c9.5,7.1,19.9,12,31,14.6c-24.4,15-50.4,22.3-78.9,22.3c-6.4,0-12.2-0.8-17.8-1.6
		c-3.2-0.5-6.4,1.4-7.5,4.5c-1.2,3.1,0,6.5,2.7,8.3c38.2,24.9,79.1,37,125.1,37c29,0,56.3-4.7,80.9-14.1
		c24.1-8.3,45.4-20.2,65.2-36.2c0.1-0.1,0.2-0.2,0.3-0.2c19.4-17.4,34.3-34.9,45.6-53.5c13-19,22.8-40,29.1-62.4
		c6.5-19.7,9.8-41,9.8-65.2V175c14-10.5,26.3-23.5,37.9-39.6C450,132.5,449.4,128.4,446.6,126z M398.8,165.8
		c-1.8,1.3-2.8,3.4-2.8,5.7v10.2c0,22.8-3,42.7-9.1,61c0,0.1-0.1,0.2-0.1,0.3c-5.9,21-15.1,40.7-27.2,58.6c-0.1,0.1-0.1,0.2-0.2,0.3
		c-10.6,17.4-24.7,33.9-43,50.4c-18.5,14.9-38.4,26-60.9,33.7c-0.1,0-0.1,0-0.2,0.1c-23.1,8.8-48.7,13.2-76.1,13.2
		c-33.2,0-63.6-6.7-92.2-20.5c33.2-2,64.1-13.9,92.1-35.3c2.4-1.8,3.3-5,2.4-7.8c-1-2.8-3.6-4.8-6.6-4.8c-15.7,0-29.4-4.6-41.9-14
		c-9.5-7.1-16.5-15.4-21.4-25.2c1.5,0.1,3,0.2,4.4,0.2c8.5,0,16-1.3,22.9-3.9c2.9-1.1,4.8-4,4.5-7.2c-0.3-3.1-2.6-5.7-5.7-6.3
		c-15.8-3-30-11.3-41.2-24.1c-8.6-10.5-13.8-22.4-15.6-35.5c9.2,3.5,18.6,5.2,28.2,5.2c3.1,0,5.9-2.1,6.7-5.1s-0.4-6.2-3.1-7.9
		c-9.8-6-17.5-14.3-23.1-24.7c0-0.1-0.1-0.1-0.1-0.2c-5.7-10-8.5-21.1-8.5-34.1c0-9.8,1.7-19,4.9-27.4
		c19.1,21.2,41.5,38.6,66.8,51.6c29.5,15.2,61.2,23.8,94.2,25.5c2.2,0.1,4.4-0.8,5.8-2.5c1.4-1.7,1.9-4,1.4-6.1
		c-1.6-6.4-2.4-11.9-2.4-17.1c0-19.6,7.1-36.6,21-50.6c14.1-14.1,30.9-21,51.4-21c20.1,0,38.1,7.8,52.1,22.6c1.6,1.7,4,2.5,6.4,2.1
		c12.1-2.3,23.2-5.7,34.1-10.3c-5.8,8.8-13.7,16.3-23.6,22.2c-2.8,1.7-4.1,5.1-3,8.2c1.1,3.1,4.1,5.1,7.4,4.7
		c7.8-0.9,15.6-2.4,23.8-4.6C414.3,153.3,406.8,160,398.8,165.8z"/>
</g>
</svg>
