<?xml version="1.0" encoding="utf-8"?>
<!-- Generator: Adobe Illustrator 17.1.0, SVG Export Plug-In . SVG Version: 6.00 Build 0)  -->
<!DOCTYPE svg PUBLIC "-//W3C//DTD SVG 1.1//EN" "http://www.w3.org/Graphics/SVG/1.1/DTD/svg11.dtd">
<svg version="1.1" id="Layer_1" xmlns="http://www.w3.org/2000/svg" xmlns:xlink="http://www.w3.org/1999/xlink" x="0px" y="0px"
	 viewBox="0 0 64 64" enable-background="new 0 0 64 64" xml:space="preserve">
<g>
	<path fill="#231F20" d="M53.5,46h-6.8c-0.5,0-0.9-0.3-1-0.8l-2.3-9.7L40,45.3c-0.1,0.4-0.5,0.7-0.9,0.7h-6.4c0,0-0.1,0-0.1,0
		c0,0-0.1,0-0.1,0H11.1c-0.3,0-0.6-0.2-0.8-0.4c-0.2-0.3-0.2-0.6-0.1-0.9l10.6-26c0.2-0.4,0.5-0.6,0.9-0.6h22.4c0,0,0,0,0.1,0
		c0.4,0,0.8,0.3,0.9,0.7l9.4,26c0.1,0.3,0.1,0.6-0.1,0.9C54.1,45.8,53.8,46,53.5,46z M47.4,44H52L44,21.6L34,44h4.3l4.2-12.3
		c0.1-0.4,0.6-0.7,1-0.7c0.4,0,0.8,0.3,0.9,0.8L47.4,44z M12.6,44h19.3l10.7-24H22.4L12.6,44z"/>
	<path fill="#231F20" d="M56.4,46c-0.1,0-0.2,0-0.2,0c-0.5-0.1-0.9-0.7-0.7-1.2l0.8-3.5c0.1-0.5,0.7-0.9,1.2-0.7
		c0.5,0.1,0.9,0.7,0.7,1.2l-0.8,3.5C57.3,45.7,56.9,46,56.4,46z"/>
	<path fill="#231F20" d="M7.7,46c-0.4,0-0.9-0.3-1-0.8l-1-3.8c-0.1-0.5,0.2-1.1,0.7-1.2C7,40.1,7.6,40.4,7.7,41l1,3.8
		c0.1,0.5-0.2,1.1-0.7,1.2C7.9,46,7.8,46,7.7,46z"/>
</g>
</svg>
