<?xml version="1.0" encoding="utf-8"?>
<!-- Generator: Adobe Illustrator 17.1.0, SVG Export Plug-In . SVG Version: 6.00 Build 0)  -->
<!DOCTYPE svg PUBLIC "-//W3C//DTD SVG 1.1//EN" "http://www.w3.org/Graphics/SVG/1.1/DTD/svg11.dtd">
<svg version="1.1" id="Layer_1" xmlns="http://www.w3.org/2000/svg" xmlns:xlink="http://www.w3.org/1999/xlink" x="0px" y="0px"
	 viewBox="0 0 64 64" enable-background="new 0 0 64 64" xml:space="preserve">
<g>
	<path d="M25.6,42.4c-4.5,0-8.7-1.7-11.8-4.9c-6.5-6.5-6.5-17.2,0-23.7c3.2-3.2,7.4-4.9,11.8-4.9s8.7,1.7,11.8,4.9
		c3.2,3.2,4.9,7.4,4.9,11.8s-1.7,8.7-4.9,11.8C34.3,40.6,30.1,42.4,25.6,42.4z M25.6,11.9c-3.7,0-7.1,1.4-9.7,4
		c-5.4,5.4-5.4,14.1,0,19.4c2.6,2.6,6,4,9.7,4c3.7,0,7.1-1.4,9.7-4s4-6,4-9.7c0-3.7-1.4-7.1-4-9.7C32.7,13.3,29.3,11.9,25.6,11.9z"
		/>
	<rect x="32.7" y="43.9" transform="matrix(0.7071 0.7071 -0.7071 0.7071 45.3728 -18.794)" width="25.4" height="3"/>
</g>
</svg>
