<?xml version="1.0" encoding="utf-8"?>
<!-- Generator: Adobe Illustrator 17.1.0, SVG Export Plug-In . SVG Version: 6.00 Build 0)  -->
<!DOCTYPE svg PUBLIC "-//W3C//DTD SVG 1.1//EN" "http://www.w3.org/Graphics/SVG/1.1/DTD/svg11.dtd">
<svg version="1.1" id="Layer_1" xmlns="http://www.w3.org/2000/svg" xmlns:xlink="http://www.w3.org/1999/xlink" x="0px" y="0px"
	 viewBox="0 0 544 56.9" enable-background="new 0 0 544 56.9" xml:space="preserve">
<g>
	<defs>
		<rect id="SVGID_1_" y="0" width="544" height="56.9"/>
	</defs>
	<clipPath id="SVGID_2_">
		<use xlink:href="#SVGID_1_"  overflow="visible"/>
	</clipPath>
	<path clip-path="url(#SVGID_2_)" fill="#FFFFFF" d="M5.3,19.2H0v-3h5.3V4.9h3.3v11.3h10.4v3H8.6v21.9c0,10.5,6.3,11.9,9.5,11.9
		c1.1,0,1.8-0.2,1.8-0.2V56c0,0-0.8,0.2-2,0.2c-4.1,0-12.7-1.5-12.7-14.8V19.2z"/>
	<path clip-path="url(#SVGID_2_)" fill="#FFFFFF" d="M29,0h3.3v23c0,1.8-0.3,3.3-0.3,3.3h0.2C33.6,22.5,39.2,15,49.1,15
		c10.4,0,13.2,6.1,13.2,15.6v25.3h-3.3V31.7c0-6.9-0.9-13.5-9.8-13.5c-7.5,0-14.1,5.3-16.1,12.7c-0.5,1.7-0.6,3.5-0.6,5.4v19.5H29V0
		z"/>
	<path clip-path="url(#SVGID_2_)" fill="#FFFFFF" d="M92.3,15c10.8,0,16.3,8.5,16.3,18.2c0,0.9-0.2,2.2-0.2,2.2h-32
		c0,11.6,7.8,18.2,17.1,18.2c7.7,0,12.4-5,12.4-5l1.8,2.8c0,0-5.6,5.5-14.2,5.5C82.3,56.8,73,48.7,73,36C73,22.5,82.1,15,92.3,15
		 M105.1,32.2c-0.4-9.7-6.2-14.1-12.8-14.1c-7.3,0-14.1,4.8-15.6,14.1H105.1z"/>
	<path clip-path="url(#SVGID_2_)" fill="#F6F2D8" d="M119.8,16h3.3v7c0,1.8-0.3,3.3-0.3,3.3h0.2c2-6,9.1-11.2,15.3-11.2
		c8,0,11.7,3.7,12.6,10.8h0.2c2.2-5.6,8.3-10.8,15.2-10.8c10.3,0,13.3,6.1,13.3,15.6v25.3h-3.3V31.7c0-7.5-1.5-13.6-10-13.6
		c-6.6,0-12.3,5.9-14,12.1c-0.6,1.8-0.8,3.8-0.8,6.1v19.5h-3.4V31.7c0-6.9-1-13.6-9.7-13.6c-7.1,0-12.7,6.2-14.5,12.8
		c-0.5,1.7-0.6,3.5-0.6,5.4v19.5h-3.3V16z"/>
	<path clip-path="url(#SVGID_2_)" fill="#F6F2D8" d="M209.6,15c10.8,0,16.3,8.5,16.3,18.2c0,0.9-0.2,2.2-0.2,2.2h-32
		c0,11.6,7.8,18.2,17.1,18.2c7.7,0,12.4-5,12.4-5l1.8,2.8c0,0-5.6,5.5-14.2,5.5c-11.2,0-20.6-8.1-20.6-20.8
		C190.2,22.5,199.4,15,209.6,15 M222.4,32.2c-0.4-9.7-6.2-14.1-12.8-14.1c-7.3,0-14.1,4.8-15.5,14.1H222.4z"/>
	<path clip-path="url(#SVGID_2_)" fill="#F6F2D8" d="M237.1,16h3.3v7c0,1.8-0.3,3.3-0.3,3.3h0.2c2-6,9.1-11.2,15.3-11.2
		c8,0,11.7,3.7,12.6,10.8h0.2c2.2-5.6,8.3-10.8,15.2-10.8c10.3,0,13.3,6.1,13.3,15.6v25.3h-3.4V31.7c0-7.5-1.5-13.6-10-13.6
		c-6.6,0-12.3,5.9-14,12.1c-0.6,1.8-0.8,3.8-0.8,6.1v19.5h-3.4V31.7c0-6.9-1-13.6-9.7-13.6c-7.1,0-12.7,6.2-14.5,12.8
		c-0.5,1.7-0.6,3.5-0.6,5.4v19.5h-3.3V16z"/>
	<path clip-path="url(#SVGID_2_)" fill="#F6F2D8" d="M328,15c11.4,0,20.7,9,20.7,20.7c0,11.9-9.3,21.1-20.7,21.1
		c-11.4,0-20.7-9.3-20.7-21.1C307.4,24,316.6,15,328,15 M328,53.5c9.5,0,17.1-7.7,17.1-17.9c0-9.9-7.7-17.4-17.1-17.4
		c-9.5,0-17.1,7.5-17.1,17.4C310.9,45.8,318.5,53.5,328,53.5"/>
	<path clip-path="url(#SVGID_2_)" fill="#F6F2D8" d="M359.8,16h3.3v7.6c0,1.8-0.3,3.3-0.3,3.3h0.2c2-6.1,6.5-11.2,12.8-11.2
		c1.2,0,2.3,0.2,2.3,0.2v3.3c0,0-1-0.2-1.8-0.2c-6.2,0-10.1,5.3-11.9,11.2c-0.9,2.8-1.2,5.7-1.2,8.4v17.2h-3.3V16z"/>
	<path clip-path="url(#SVGID_2_)" fill="#F6F2D8" d="M386.4,0h4v5.8h-4V0z M386.7,16h3.4v39.9h-3.4V16z"/>
	<path clip-path="url(#SVGID_2_)" fill="#F6F2D8" d="M420.7,15c10.8,0,16.3,8.5,16.3,18.2c0,0.9-0.2,2.2-0.2,2.2h-32
		c0,11.6,7.8,18.2,17.1,18.2c7.7,0,12.4-5,12.4-5l1.8,2.8c0,0-5.6,5.5-14.2,5.5c-11.2,0-20.6-8.1-20.6-20.8
		C401.3,22.5,410.5,15,420.7,15 M433.4,32.2c-0.4-9.7-6.2-14.1-12.8-14.1c-7.3,0-14.1,4.8-15.5,14.1H433.4z"/>
	<path clip-path="url(#SVGID_2_)" fill="#F89A2C" d="M513.2,16.6c-20.4,0.8-35.9,10.7-41,14.8c-5,4.1-5.1,8.3-5.1,8.3
		c0,2.7,1,5.3,2.9,8c1.1,1.4,2.5,2.8,4.2,3.9c14.2-17.5,32.1-25.1,32.4-25.2c0.6-0.3,1.3,0,1.6,0.7c0.3,0.6,0,1.4-0.7,1.6
		c-0.3,0.1-17.5,7.4-31.2,24.2c0.9,0.5,1.8,0.9,2.8,1.4c4.1,1.8,9,2.6,14.8,2.6c6,0,11.1-0.8,15.3-2.4c4.2-1.6,7.4-4,9.5-7.2
		c0.8-1.2,1.5-2.6,2-4l-0.1,0.4c3.8-10.1,7.2-19.5,15.4-20.1c4.2-0.3,7.9,0.5,7.9,0.5C543.4,24,534.1,15.8,513.2,16.6"/>
	<path clip-path="url(#SVGID_2_)" fill="#F6F2D8" d="M462.7,39.1c0.1-0.7,0.3-1.9,0.8-3.4C457.3,33,450,31.5,450,25.5
		c0-5.2,4.5-7.3,9-7.3c6.8,0,10,3.7,10,3.7l2-2.7c0,0-3.7-4.3-11.8-4.3c-6.8,0-12.8,3.7-12.8,10.8C446.5,34.4,456.2,36,462.7,39.1"
		/>
	<path clip-path="url(#SVGID_2_)" fill="#F6F2D8" d="M466.7,50.6c-1.7,1.9-4.5,2.9-7.5,2.9c-7.9,0-12.4-5-12.4-5l-2.2,2.6
		c0,0,4.8,5.7,14.4,5.7c4.1,0,7.5-1.4,9.8-3.7C468.2,52.3,467.4,51.5,466.7,50.6"/>
</g>
</svg>
